<svg xmlns="http://www.w3.org/2000/svg" viewBox="0 0 1846.81 1384.13"><defs><style>.cls-1{isolation:isolate;}.cls-2{fill:#3797db;}.cls-3{fill:#9ed16f;}.cls-4{fill:#7772d6;}.cls-5{fill:#3b77be;}.cls-6{fill:#d1eaf2;}.cls-12,.cls-15,.cls-7{fill:#daeef7;}.cls-25,.cls-7{opacity:0.3;}.cls-8{fill:#fff;}.cls-9{fill:#45258f;}.cls-10{fill:#adcfd8;}.cls-11,.cls-16{fill:#55769f;}.cls-13{fill:#62bdf3;}.cls-14,.cls-22{fill:#96a65f;}.cls-15,.cls-25{mix-blend-mode:multiply;}.cls-16,.cls-22{opacity:0.5;}.cls-17{fill:#efac7f;}.cls-18{fill:#2d185d;}.cls-19,.cls-24{fill:#d19369;}.cls-20{fill:#333;}.cls-21{fill:#282828;}.cls-23{fill:#5e2e0d;}.cls-24{opacity:0.6;}.cls-25{fill:#f99893;}</style></defs><title>bg</title><g class="cls-1"><g id="Layer_2" data-name="Layer 2"><g id="Layer_1-2" data-name="Layer 1"><path class="cls-2" d="M809.91,237.49s-2.39,23.57-21,25.2c18.61,1.63,21,25.21,21,25.21s2.39-23.58,21-25.21C812.3,261.06,809.91,237.49,809.91,237.49Z"/><path class="cls-3" d="M379.06,23s-3.19,31.4-28,33.57c24.77,2.17,28,33.57,28,33.57s3.18-31.4,28-33.57C382.24,54.38,379.06,23,379.06,23Z"/><path class="cls-3" d="M1205.72,284.37s-2.11,20.79-18.52,22.23c16.41,1.44,18.52,22.24,18.52,22.24s2.11-20.8,18.52-22.24C1207.83,305.16,1205.72,284.37,1205.72,284.37Z"/><path class="cls-3" d="M148.2,590.66s-3.19,31.4-28,33.57c24.77,2.17,28,33.57,28,33.57s3.18-31.4,28-33.57C151.38,622.06,148.2,590.66,148.2,590.66Z"/><path class="cls-4" d="M227.62,317.41s-2.14,21.08-18.78,22.54c16.64,1.46,18.78,22.54,18.78,22.54s2.14-21.08,18.77-22.54C229.76,338.49,227.62,317.41,227.62,317.41Z"/><path class="cls-4" d="M1724.7,786s-3.19,31.4-28,33.57c24.77,2.17,28,33.57,28,33.57s3.18-31.4,28-33.57C1727.88,817.42,1724.7,786,1724.7,786Z"/><path class="cls-2" d="M28,505.93s-3.18,31.4-28,33.57c24.78,2.18,28,33.57,28,33.57s3.19-31.39,28-33.57C31.15,537.33,28,505.93,28,505.93Z"/><path class="cls-2" d="M1818.85,442.41s-3.19,31.4-28,33.57c24.78,2.18,28,33.57,28,33.57s3.18-31.39,28-33.57C1822,473.81,1818.85,442.41,1818.85,442.41Z"/><path class="cls-4" d="M1087.7,56.55s-3.18,31.4-28,33.57c24.78,2.17,28,33.57,28,33.57s3.19-31.4,28-33.57C1090.89,88,1087.7,56.55,1087.7,56.55Z"/><path class="cls-3" d="M1548.7,245.05s-1.73,19.82-15.2,21.19c13.47,1.38,15.2,21.2,15.2,21.2s1.73-19.82,15.2-21.2C1550.43,264.87,1548.7,245.05,1548.7,245.05Z"/><rect class="cls-5" x="310.99" y="392.93" width="1327.47" height="970.54" rx="46.1"/><path class="cls-6" d="M360.13,430.82H1544.54a0,0,0,0,1,0,0v894.76a0,0,0,0,1,0,0H360.13a14.69,14.69,0,0,1-14.69-14.69V445.51a14.69,14.69,0,0,1,14.69-14.69Z"/><path class="cls-7" d="M1626.38,878.2a33.66,33.66,0,1,1-33.66-33.66A33.66,33.66,0,0,1,1626.38,878.2Z"/><rect class="cls-8" x="393.96" y="549.45" width="1094.22" height="760.79"/><path class="cls-4" d="M510,1141.23l-38.24-.69c-13.28-24.06-23-45-23-45,43.19-10,79.65-5.87,110,5.81L575.46,1142l3.59-31.3c75.27,40.62,106.28,126.6,106.28,126.6s-133-14.17-161.22-27.28c-10.89-5.07-24.61-23.29-37.36-43.75C497,1156.58,510,1141.23,510,1141.23Z"/><path class="cls-9" d="M448.71,1095.55s170.78,71.87,236.62,141.76c0,0-133-14.17-161.22-27.28-10.89-5.07-24.61-23.29-37.36-43.75,10.2-9.7,23.22-25,23.22-25l-38.24-.69C458.45,1116.48,448.71,1095.55,448.71,1095.55Z"/><path class="cls-4" d="M454.16,1210.42a175.4,175.4,0,0,1,68.65-24.49c6.58,8.19,14.66,17.81,14.66,17.81l.85-19.18c86.14-3.93,157.52,53.79,157.52,53.79-49.89,31.45-92.45,40.12-127.32,37.31-2.06-6.71-5-16.72-5-16.72l-6.16,15.41a150.39,150.39,0,0,1-44.2-14.2c3.26-8,6.7-17.13,6.7-17.13l-18.57,10.54C470.2,1234.54,454.16,1210.42,454.16,1210.42Z"/><path class="cls-9" d="M568.52,1275.66c-2.06-6.71-5-16.72-5-16.72l-6.16,15.41a150.39,150.39,0,0,1-44.2-14.2c3.26-8,6.7-17.13,6.7-17.13l-18.57,10.54c-31.11-19-47.15-43.14-47.15-43.14,100.37-11.59,241.68,27.93,241.68,27.93C646,1269.8,603.39,1278.47,568.52,1275.66Z"/><path class="cls-2" d="M915.1,1076.28l-133.16,53.48L617.1,719.32l112.56-45.21a22.2,22.2,0,0,1,28.88,12.33Z"/><rect class="cls-10" x="642.04" y="722.32" width="258.95" height="364.08" transform="translate(-146.02 148.55) rotate(-10.05)"/><rect class="cls-11" x="688.29" y="760.71" width="115.64" height="2.6" transform="translate(-121.56 141.94) rotate(-10.05)"/><rect class="cls-11" x="662.85" y="754.22" width="164.22" height="2.6" transform="translate(-120.44 141.64) rotate(-10.05)"/><rect class="cls-11" x="651.25" y="787.55" width="199.24" height="2.6" transform="translate(-126.17 143.18) rotate(-10.05)"/><rect class="cls-11" x="653.43" y="799.84" width="199.24" height="2.6" transform="translate(-128.28 143.75) rotate(-10.05)"/><rect class="cls-11" x="657.79" y="824.43" width="199.24" height="2.6" transform="translate(-132.51 144.89) rotate(-10.05)"/><rect class="cls-11" x="659.97" y="836.72" width="199.24" height="2.6" transform="translate(-134.62 145.46) rotate(-10.05)"/><rect class="cls-11" x="662.15" y="849.02" width="199.24" height="2.6" transform="translate(-136.73 146.02) rotate(-10.05)"/><rect class="cls-11" x="671.74" y="903.09" width="199.24" height="2.6" transform="translate(-146.02 148.52) rotate(-10.05)"/><rect class="cls-11" x="674" y="915.84" width="199.24" height="2.6" transform="translate(-148.21 149.12) rotate(-10.05)"/><rect class="cls-11" x="676.26" y="928.59" width="199.24" height="2.6" transform="translate(-150.4 149.71) rotate(-10.05)"/><rect class="cls-11" x="678.52" y="941.34" width="199.24" height="2.6" transform="translate(-152.6 150.3) rotate(-10.05)"/><rect class="cls-11" x="680.78" y="954.09" width="199.24" height="2.6" transform="translate(-154.79 150.89) rotate(-10.05)"/><rect class="cls-11" x="683.04" y="966.84" width="199.24" height="2.6" transform="translate(-156.98 151.48) rotate(-10.05)"/><rect class="cls-11" x="685.3" y="979.58" width="199.24" height="2.6" transform="translate(-159.17 152.07) rotate(-10.05)"/><rect class="cls-12" x="622.12" y="720.53" width="258.95" height="364.08" transform="matrix(0.97, -0.25, 0.25, 0.97, -204.96, 221.01)"/><rect class="cls-2" x="656.82" y="761.46" width="115.64" height="2.6" transform="translate(-170.6 207) rotate(-14.74)"/><rect class="cls-2" x="630.85" y="755.09" width="164.22" height="2.6" transform="translate(-169.03 206.37) rotate(-14.74)"/><rect class="cls-2" x="621.96" y="787.82" width="199.24" height="2.6" transform="translate(-177.08 209.63) rotate(-14.74)"/><rect class="cls-2" x="625.14" y="799.9" width="199.24" height="2.6" transform="translate(-180.04 210.84) rotate(-14.74)"/><rect class="cls-2" x="631.49" y="824.05" width="199.24" height="2.6" transform="translate(-185.98 213.25) rotate(-14.74)"/><rect class="cls-2" x="634.67" y="836.12" width="199.24" height="2.6" transform="translate(-188.95 214.46) rotate(-14.74)"/><rect class="cls-2" x="637.85" y="848.2" width="199.24" height="2.6" transform="matrix(0.97, -0.25, 0.25, 0.97, -191.92, 215.66)"/><rect class="cls-2" x="651.82" y="901.3" width="199.24" height="2.6" transform="translate(-204.98 220.97) rotate(-14.74)"/><rect class="cls-2" x="655.12" y="913.83" width="199.24" height="2.6" transform="translate(-208.05 222.22) rotate(-14.74)"/><rect class="cls-2" x="658.41" y="926.35" width="199.24" height="2.6" transform="matrix(0.97, -0.25, 0.25, 0.97, -211.13, 223.47)"/><rect class="cls-2" x="661.71" y="938.87" width="199.24" height="2.6" transform="translate(-214.21 224.72) rotate(-14.74)"/><rect class="cls-11" x="665" y="951.39" width="199.24" height="2.6" transform="translate(-217.29 225.97) rotate(-14.74)"/><rect class="cls-11" x="668.3" y="963.91" width="199.24" height="2.6" transform="matrix(0.97, -0.25, 0.25, 0.97, -220.37, 227.23)"/><rect class="cls-11" x="671.59" y="976.43" width="199.24" height="2.6" transform="translate(-223.44 228.48) rotate(-14.74)"/><path class="cls-13" d="M864.57,1096.57,596.49,1204.24,440.13,814.9l225.27-139a24,24,0,0,1,34.85,11.48Z"/><path class="cls-3" d="M956.79,693l30.83-22.64c-3-27.31-7.17-50-7.17-50-41,16.8-68.42,41.18-86.49,68.24l9.8,42.86-21-23.49c-38,76.61-13.71,164.72-13.71,164.72S969.5,784.28,985,757.3c6-10.43,6.66-33.22,5.25-57.29C976.28,698,956.79,693,956.79,693Z"/><path class="cls-14" d="M980.45,620.3s-98,157.26-111.39,252.33c0,0,100.44-88.35,115.9-115.33,6-10.43,6.66-33.22,5.25-57.29-13.93-2-33.42-7-33.42-7l30.83-22.64C984.57,643,980.45,620.3,980.45,620.3Z"/><path class="cls-3" d="M1042.31,717.24a175.3,175.3,0,0,0-70.19,19.63c-.65,10.48-1.7,23-1.7,23L958.66,744.7c-72.61,46.52-97.58,134.85-97.58,134.85,58.89-3.12,98.65-20.6,125.49-43C984.39,829.86,981,820,981,820l13.92,9a150.2,150.2,0,0,0,27.89-37.1c-7.27-4.64-15.35-10.12-15.35-10.12l21.25-2.11C1043.13,746.2,1042.31,717.24,1042.31,717.24Z"/><path class="cls-14" d="M986.57,836.53C984.39,829.86,981,820,981,820l13.92,9a150.2,150.2,0,0,0,27.89-37.1c-7.27-4.64-15.35-10.12-15.35-10.12l21.25-2.11c14.42-33.49,13.6-62.45,13.6-62.45-88.66,48.47-181.23,162.31-181.23,162.31C920,876.43,959.73,859,986.57,836.53Z"/><path class="cls-4" d="M1288.75,829.28h18.34a19.1,19.1,0,0,0-10.84-3.28H837c-24,0-43.5,17.26-43.5,38.56v24.5c0,21.3,19.48,38.57,43.5,38.57l454.14-.14Z"/><path class="cls-6" d="M832,889.06v-24.5c0-21.3,19.48-38.56,43.51-38.56h-9.86c-24,0-43.51,17.26-43.51,38.56v24.5c0,21.3,19.48,38.57,43.51,38.57h9.73C851.41,927.56,832,910.32,832,889.06Z"/><path class="cls-6" d="M939.56,889.06v-24.5c0-21.3,19.48-38.56,43.51-38.56h-9.86c-24,0-43.51,17.26-43.51,38.56v24.5c0,21.3,19.48,38.57,43.51,38.57h9.73C959,927.56,939.56,910.32,939.56,889.06Z"/><path class="cls-9" d="M1028,826.09c-23,0-41.61,16.51-41.61,36.88v27.68c0,20.37,18.63,36.89,41.61,36.89h285.9v-6.2h-1.18l-72.68-6.1-14.69-51.09s28.35-28.23,30.2-28.95,57.17-2.94,57.17-2.94h1.18v-6.16Z"/><path class="cls-6" d="M1295.38,876.63c0-29.87,17.41-44.35,17.41-44.35H1033.87c-21.1,0-38.21,15.17-38.21,33.88v21.31c0,18.71,17.11,33.87,38.21,33.87h278.92S1295.38,914.24,1295.38,876.63Z"/><path class="cls-15" d="M995.66,866.16v21.31a30.37,30.37,0,0,0,1.11,8.12c9.41-20.4,27.44-40.05,61.76-46.37,80.13-14.75,254.26-16.94,254.26-16.94H1033.87C1012.77,832.28,995.66,847.45,995.66,866.16Z"/><path class="cls-9" d="M1281.19,1032.41h20.75a20.29,20.29,0,0,0-12.26-4.1H769.88c-27.2,0-49.25,21.61-49.25,48.27v30.67c0,26.66,22,48.27,49.25,48.27l514-.17Z"/><path class="cls-4" d="M986.09,1028.42c-26,0-47.09,20.67-47.09,46.17v34.65c0,25.5,21.08,46.17,47.09,46.17h323.59v-7.75h-1.34l-82.26-7.64-16.63-64s32.09-35.34,34.19-36.25,64.7-3.67,64.7-3.67l1.34,0v-7.71Z"/><path class="cls-6" d="M1288.69,1091.69c0-37.39,19.71-55.52,19.71-55.52H992.71c-23.88,0-43.25,19-43.25,42.41v26.67c0,23.42,19.37,42.41,43.25,42.41H1308.4S1288.69,1138.76,1288.69,1091.69Z"/><path class="cls-15" d="M949.46,1078.58v26.67a41.6,41.6,0,0,0,1.26,10.17c10.65-25.54,31.06-50.13,69.9-58,90.69-18.47,287.78-21.21,287.78-21.21H992.71C968.83,1036.17,949.46,1055.16,949.46,1078.58Z"/><path class="cls-2" d="M703.5,930.62H682.74A24,24,0,0,1,695,927.37h520c27.2,0,49.26,17.15,49.26,38.3V990c0,21.16-22.06,38.31-49.26,38.31l-514.19-.14Z"/><path class="cls-5" d="M998.72,927.46c26,0,47.11,16.4,47.11,36.63v27.5c0,20.23-21.09,36.63-47.11,36.63H675v-6.15h1.34l82.3-6.06,16.63-50.74s-32.1-28-34.2-28.77-64.73-2.91-64.73-2.91H675v-6.12Z"/><path class="cls-6" d="M696,977.66c0-29.67-19.72-44-19.72-44H992.09c23.9,0,43.27,15.06,43.27,33.65v21.16c0,18.58-19.37,33.65-43.27,33.65H676.28S696,1015,696,977.66Z"/><path class="cls-15" d="M1035.36,967.26v21.16a26.6,26.6,0,0,1-1.26,8.07c-10.65-20.26-31.07-39.78-69.93-46.06-90.73-14.65-287.89-16.82-287.89-16.82H992.09C1016,933.61,1035.36,948.67,1035.36,967.26Z"/><path class="cls-16" d="M1169,990V965.67c0-21.15-22.06-38.3-49.27-38.3h49.38c27.21,0,49.27,17.15,49.27,38.3V990c0,21.16-22.06,38.31-49.27,38.31h-48.72C1147.31,1028,1169,1011,1169,990Z"/><path class="cls-3" d="M664.24,1159.42H641.87a25,25,0,0,1,13.22-3.64h560.58c29.33,0,53.1,19.16,53.1,42.8v27.18c0,23.64-23.77,42.8-53.1,42.8l-554.31-.15Z"/><path class="cls-14" d="M982.5,1155.88c28,0,50.78,18.33,50.78,40.93v30.72c0,22.6-22.74,40.93-50.78,40.93h-349v-6.87H635l88.72-6.77,17.93-56.7S707,1166.79,704.74,1166s-69.78-3.26-69.78-3.26h-1.44v-6.84Z"/><path class="cls-6" d="M656.15,1212c0-33.15-21.25-49.22-21.25-49.22H975.35c25.76,0,46.65,16.83,46.65,37.6V1224c0,20.77-20.89,37.6-46.65,37.6H634.9S656.15,1253.71,656.15,1212Z"/><path class="cls-15" d="M1022,1200.35V1224a30.56,30.56,0,0,1-1.37,9c-11.48-22.64-33.48-44.45-75.38-51.46-97.81-16.37-310.35-18.8-310.35-18.8H975.35C1001.11,1162.75,1022,1179.58,1022,1200.35Z"/><rect class="cls-6" x="1180.52" y="1234.07" width="236.18" height="13.1" transform="translate(2597.23 2481.24) rotate(180)"/><path class="cls-6" d="M1410.11,1132.73l3.58,16.47a11.66,11.66,0,0,1-9,13.89l-210.92,44.51a11.67,11.67,0,0,1-13.9-9.44l-1.85-10.82a11.67,11.67,0,0,1,5.92-12.21l63.17-34.35a11.54,11.54,0,0,1,4.32-1.35l144.69-15.64,1-.13A11.64,11.64,0,0,1,1410.11,1132.73Z"/><path class="cls-5" d="M1196.79,1181.68s-30.13,21.94-8.19,58.12l-1.31,9.33-38.63,2.62-35.36-7.2-6.55-58.94,84.8-25.21Z"/><rect class="cls-2" x="1102.82" y="1239.8" width="339.2" height="28.76" rx="5.62" transform="translate(2544.84 2508.36) rotate(180)"/><path class="cls-2" d="M1434.44,1129l-241.06,56.84a11.45,11.45,0,0,1-5.84-.15c-9.49-2.72-41.65-9.52-68.71,13.58a11.48,11.48,0,0,1-18.55-5.52l-4.32-15.16a11.49,11.49,0,0,1,5-12.87c35-21.9,188.23-113.63,289.1-106.65a28.93,28.93,0,0,1,22.93,14.18l26.29,44.53A7.58,7.58,0,0,1,1434.44,1129Z"/><path class="cls-13" d="M1136,1216.76a14.41,14.41,0,1,0,14.4-14.4A14.41,14.41,0,0,0,1136,1216.76Z"/><polygon class="cls-2" points="487.63 857.89 670.15 753.49 694.82 802.36 508.05 901.16 487.63 857.89"/><path class="cls-12" d="M1602.76,892.22h-20.08a4,4,0,0,1-4-4V868.16a4,4,0,0,1,4-4h20.08a4,4,0,0,1,4,4v20.08A4,4,0,0,1,1602.76,892.22Zm-20.08-27a2.9,2.9,0,0,0-2.9,2.9v20.08a2.9,2.9,0,0,0,2.9,2.9h20.08a2.9,2.9,0,0,0,2.9-2.9V868.16a2.9,2.9,0,0,0-2.9-2.9Z"/><path class="cls-9" d="M1488.19,570.32V514a35,35,0,0,0-35-35H428.92a35,35,0,0,0-35,35v56.35Z"/><rect class="cls-8" x="970.21" y="502.49" width="471.02" height="44.35" rx="19.33"/><path class="cls-8" d="M484.36,524.67A19.26,19.26,0,1,1,465.1,505.4,19.26,19.26,0,0,1,484.36,524.67Z"/><path class="cls-8" d="M568.55,524.67a19.27,19.27,0,1,1-19.26-19.27A19.26,19.26,0,0,1,568.55,524.67Z"/><path class="cls-8" d="M652.73,524.67a19.26,19.26,0,1,1-19.26-19.27A19.26,19.26,0,0,1,652.73,524.67Z"/><path class="cls-17" d="M462.44,911.46c1.68-1.43,3.23-2.56,3.23-2.56,16-16.16,15.55-16.53,15.06-17.21s-9,4.08-9.21,3.14,8.72-10.81,7.55-11-10.57,7.92-11,7.26,8.4-10.06,7.08-11.17-10.62,9.51-11.32,8.2,9.11-12,7.74-12.77c-1.15-.69-12.41,10.95-16,14.67a.84.84,0,0,1-1.42-.4c-2.31-10-3.08-10.58-4.11-10.08-.74.36-2.78,13.85-4,22.46l16.32,9.48Z"/><path class="cls-13" d="M331.33,893.66c-12.84-25.93-42.23-18.83-43.47-18.51l-1.27-5c.35-.09,34.64-8.49,49.34,21.2Z"/><path class="cls-4" d="M279.25,901.29s-5.38-18.95,55.08-16.1c5.88.27,14.14,4.85,17,10L364.54,919s-45.17,16.67-50.49,10.51S279.25,901.29,279.25,901.29Z"/><path class="cls-17" d="M246.94,897.06s18.33-3.83,52.44-1.42-15.77,21.61-15.77,21.61-17.51-.57-18.26-.71S246.94,897.06,246.94,897.06Z"/><rect class="cls-17" x="260.04" y="877.83" width="30.28" height="53.06"/><path class="cls-4" d="M373.26,961.87s17.66,84.14,12.53,93.23S313.48,1067,313.48,1067l-2.85-108,25.62-38.66Z"/><polygon class="cls-17" points="352.11 1213.45 350.72 1337.62 342.81 1356.94 322.84 1337.62 300.73 1213.6 352.11 1213.45"/><polygon class="cls-17" points="214.91 1215.7 206.57 1337.62 214.64 1355.85 233.09 1344.87 256.36 1213.6 214.91 1215.7"/><path class="cls-9" d="M212.15,1080.41l-10.26,226.32s22.24,12,46.19,1.71l19.68-175.08,17.1-2.56,25.67,173.37s20.53,15.37,49.61,2.56l-20.53-232.3Z"/><path class="cls-17" d="M395.64,932.23l21,9,29.72-39.4,16.56,8.72-20.63,46.13A29.79,29.79,0,0,1,412.35,976L376,973.65Z"/><path class="cls-18" d="M308.86,1089.7s9.46,43.82,36.05,44.69l-4-44.69Z"/><path class="cls-18" d="M245.77,1089.7s-9.46,43.82-36,44.69l.2-4.86Z"/><path class="cls-19" d="M290.27,886.9V868.8H260v15.4C266.55,887.69,276.18,889.7,290.27,886.9Z"/><path class="cls-17" d="M337.93,814.78a11.24,11.24,0,0,0-10.13.4A51.87,51.87,0,0,0,274,761.41a51.88,51.88,0,0,0-53.83,53.77,11.23,11.23,0,0,0-10.13-.4c-6.05,3-7.93,11.52-4.2,19.07s11.66,11.26,17.71,8.28a10,10,0,0,0,2.27-1.56c3.47,24.63,24,43.08,48.18,42.74,24.13.34,44.71-18.11,48.17-42.74a10,10,0,0,0,2.27,1.56c6.05,3,14-.73,17.71-8.28S344,817.76,337.93,814.78Z"/><path class="cls-20" d="M260.38,825.76a4.53,4.53,0,1,1-4.78-4.27A4.54,4.54,0,0,1,260.38,825.76Z"/><path class="cls-20" d="M299.37,826.18a4.53,4.53,0,1,1-4.77-4.27A4.52,4.52,0,0,1,299.37,826.18Z"/><path class="cls-21" d="M265.35,816.5a43.7,43.7,0,0,0-6.58-1.78,22.53,22.53,0,0,0-6.33-.26,21,21,0,0,0-6.12,1.56l-.76.29c-.26.1-.49.25-.74.36l-1.52.73c-1,.51-2,1.16-3.09,1.66a20.49,20.49,0,0,1,2.1-2.94,16.32,16.32,0,0,1,2.78-2.38,14.78,14.78,0,0,1,7-2.56,15.56,15.56,0,0,1,7.39,1.06A14.36,14.36,0,0,1,265.35,816.5Z"/><path class="cls-21" d="M283.61,816.43a14.13,14.13,0,0,1,5.81-4.3A15.53,15.53,0,0,1,296.8,811a14.73,14.73,0,0,1,7,2.51,15.91,15.91,0,0,1,2.8,2.36,19.72,19.72,0,0,1,2.12,2.92c-1.13-.49-2.08-1.13-3.1-1.63l-1.52-.72c-.26-.11-.49-.26-.74-.36l-.78-.28a20.56,20.56,0,0,0-6.12-1.51,22.2,22.2,0,0,0-6.33.3A43.5,43.5,0,0,0,283.61,816.43Z"/><path class="cls-19" d="M276.22,819.57a25.34,25.34,0,0,0,.38,7.11,20.24,20.24,0,0,0,1,3.51,9.31,9.31,0,0,0,2.12,3.32c1.17.92,1.72,1.18,2.07,2a3.17,3.17,0,0,1-.18,2.57c-.85,1.83-2.79,3.19-4.91,4.2a8,8,0,0,0,6.45-3.33,4.86,4.86,0,0,0,.67-4.15c-.51-1.55-1.39-2.07-2.58-3a8.8,8.8,0,0,1-1.68-2.51,30.86,30.86,0,0,1-1.26-3.1C277.57,824.07,276.92,821.84,276.22,819.57Z"/><path class="cls-3" d="M247.23,895.08l-29.62,5.12a37.31,37.31,0,0,0-23.76,14.73l-37.3,51L207,994.15l-6.84,98.22s91.53,23.06,147.13-1.71l-7.7-134.94,35.07,32.45s29.08-33.3,31.65-56.36l-65-33.31-42.77-4.27S273.74,921.56,247.23,895.08Z"/><path class="cls-22" d="M200.18,1092.37,207,994.15l5.43-30.76,8.34-59,26.15-2.56s24.62,24,53.95,0L332.3,908l9.26,81.93,5.75,100.75S307.34,1115.36,200.18,1092.37Z"/><path class="cls-14" d="M207,994.15c.41-5.21,1.2-10.36,2.08-15.49s1.94-10.23,3.35-15.27c-.41,5.21-1.2,10.36-2.09,15.49S208.42,989.11,207,994.15Z"/><path class="cls-5" d="M247.13,1040.67s5.9-1,9.16,3.35l-.23,11.15-7.22,3.35s-8.93-7.59-8.26-7.78S247.13,1040.67,247.13,1040.67Z"/><polygon class="cls-5" points="265.5 1113.48 170.46 1140.93 161.25 1071.47 256.29 1044.02 265.5 1113.48"/><polygon class="cls-12" points="162.62 1129.76 170.96 1136.79 261.92 1110.76 253.75 1045.3 247.33 1042.61 162.62 1129.76"/><polygon class="cls-15" points="261.92 1110.76 255.43 1105.13 243.56 1092.11 244.29 1056.3 247.33 1042.61 253.78 1045.19 261.92 1110.76"/><polygon class="cls-5" points="255.43 1105.13 160.4 1132.57 152.09 1068.12 247.13 1040.67 255.43 1105.13"/><path class="cls-17" d="M209.92,1089c10.21.59,11,0,10.85-1.09-.14-.8-12.41-6.52-20.34-10.13-25.33-42.81,3.67-99.24,3.67-99.24L174.52,962c-41.63,67.76,12,128.84,12,128.84l.09-.08c.89,2,1.54,3.79,1.54,3.79,11,19.88,11.49,19.56,12.28,19.28s-1.38-9.74-.41-9.71,7.92,11.41,8.43,10.34-4.62-12.36-3.88-12.55,7.3,10.89,8.74,9.94-6.14-12.86-4.69-13.16,8.91,12.1,10.09,11c1-.91-7-15-9.59-19.43A.84.84,0,0,1,209.92,1089Z"/><path class="cls-3" d="M156.55,966S181.1,993.08,207,994.15c0,0,1.82-19.39,1.44-20s-6.64-14.21-11.39-16.11S171.45,953,171.45,953Z"/><path class="cls-13" d="M341.48,898.69c1.26,84.5,34.29,99.85,34.57,100.42l1.42,19.33s-63.77-19.05-57.1-121.61a4.86,4.86,0,0,1,5.49-4.66l11.54,1.72A4.84,4.84,0,0,1,341.48,898.69Z"/><path class="cls-19" d="M261.36,847.93a34.45,34.45,0,0,0,8,4.09,26.72,26.72,0,0,0,8.73,1.59,22.93,22.93,0,0,0,8.67-1.7,31.94,31.94,0,0,0,7.67-4.68,24.75,24.75,0,0,1-7.34,5.43,22.46,22.46,0,0,1-4.38,1.51,23.17,23.17,0,0,1-4.62.5,24,24,0,0,1-9-1.89A26.33,26.33,0,0,1,261.36,847.93Z"/><path class="cls-9" d="M234.45,1337.62v21.43a3.21,3.21,0,0,1-3.21,3.21H181a3.63,3.63,0,0,1-2-6.7l27.53-17.94S218.29,1345.69,234.45,1337.62Z"/><path class="cls-9" d="M322.84,1337.62v21.43a3.21,3.21,0,0,0,3.21,3.21H376.3a3.63,3.63,0,0,0,1.95-6.7l-27.53-17.94S339,1345.69,322.84,1337.62Z"/><path class="cls-21" d="M319.88,796.93l5.23,31c5.68-19.78,4-33.59,3.28-37.82-.13-.75-.24-1.5-.34-2.26-1-7.86-14.94-15.24-14.94-15.24,9.32-7.95,7.3-24.33,7.3-24.33-3.25,10.42-14.2,13.9-14.2,13.9,8.11-18.37,3.65-28.8,3.65-28.8-1.21,11.42-21.49,15.39-21.49,15.39,2-8.44,3.65-15.39,3.65-15.39-3.65,5.46-17,17.88-38.94,18.87s-24.33,22.34-24.33,22.34c-15.2,11.31-11,38.63-6.49,55.46l4.4-26.13c.13-1.23.29-2.41.47-3.5a18.49,18.49,0,0,1,.5-2.22v-.07h0c3.66-13,18.55-16.09,18.55-16.09,27.58,14.4,56.37-.49,56.37-.49C316.76,787,319.88,796.93,319.88,796.93Z"/><path class="cls-13" d="M16.65,1363.47H1806.39a9,9,0,0,1,9,9v2.73a9,9,0,0,1-9,9H16.65a9,9,0,0,1-9-9v-2.73A9,9,0,0,1,16.65,1363.47Z"/><path class="cls-14" d="M466.19,528.3l7.7,17.17a2.81,2.81,0,0,1-1.41,3.72l-40.2,18a3.19,3.19,0,0,1-4-4.66l15.56-24.24S456.16,540.57,466.19,528.3Z"/><path class="cls-14" d="M517.27,528.3,525,545.47a2.81,2.81,0,0,1-1.41,3.72l-40.2,18a3.19,3.19,0,0,1-4-4.66l15.56-24.24S507.24,540.57,517.27,528.3Z"/><path class="cls-21" d="M604.1,55l4.27,26.81,9-35.74s-12.66-6.15-13.21-3.91S604.1,55,604.1,55Z"/><polygon class="cls-17" points="675.94 112.7 679.85 159.05 638.95 157.09 643.67 116.05 675.94 112.7"/><path class="cls-19" d="M641.42,135.57l2.25-19.52,32.27-3.35,1.35,16C670.88,135.14,659.34,141.77,641.42,135.57Z"/><path class="cls-19" d="M616.35,81.47c2.46,5.09,1.15,10.81-2.92,12.77s-9.36-.56-11.82-5.64-1.15-10.81,2.92-12.77S613.89,76.39,616.35,81.47Z"/><path class="cls-17" d="M610.41,85.2c-.21-1.33-.5-2.64-.82-3.94a43.7,43.7,0,1,1,86.09-13,9.43,9.43,0,0,1,8.45-1.2c5.32,2,7.63,9,5.15,15.63s-8.81,10.44-14.13,8.46a8.67,8.67,0,0,1-2-1.11c-.82,21.49-17.27,39.08-38.28,40.07a39.24,39.24,0,0,1-27.24-9.38C617.51,113.29,612.41,97.55,610.41,85.2Z"/><path class="cls-19" d="M642.27,71.18c-.09,2.51-.1,4.95-.23,7.35s-.41,4.84-1.35,6.49c-1,1.33-1.71,2.19-1.74,3.83a5.18,5.18,0,0,0,1.91,4,8.43,8.43,0,0,0,7.52,1.47c-2.44-.43-4.78-1.27-6.15-2.87a3.3,3.3,0,0,1-.9-2.51c.1-.92.38-1.1,1.49-2.64a9.65,9.65,0,0,0,1.19-4,20.61,20.61,0,0,0,0-3.85A26.15,26.15,0,0,0,642.27,71.18Z"/><path class="cls-20" d="M656.78,73.88a3.82,3.82,0,1,0,3-3.3A3.82,3.82,0,0,0,656.78,73.88Z"/><path class="cls-20" d="M624.16,77.57a3.82,3.82,0,1,0,3-3.31A3.82,3.82,0,0,0,624.16,77.57Z"/><path class="cls-19" d="M663.16,100.32a28.14,28.14,0,0,1-3.15,2.4,26.74,26.74,0,0,1-3.4,2,23.38,23.38,0,0,1-7.4,2.28,20.13,20.13,0,0,1-7.68-.57,27.9,27.9,0,0,1-7.15-3.25,21.21,21.21,0,0,0,6.92,4,18.37,18.37,0,0,0,8,.82,20.73,20.73,0,0,0,7.64-2.59A22.57,22.57,0,0,0,663.16,100.32Z"/><path class="cls-21" d="M652,65.88a39.32,39.32,0,0,1,5.57-1.34,19.29,19.29,0,0,1,5.3-.12,17.7,17.7,0,0,1,5.1,1.36c1.27.39,4.35,2.2,5.15,2.56a12.79,12.79,0,0,0-9.91-6.9,12.93,12.93,0,0,0-6.27.83A11.78,11.78,0,0,0,652,65.88Z"/><path class="cls-21" d="M635.17,67.77a11.69,11.69,0,0,0-5.55-2.57,12.91,12.91,0,0,0-6.31.39A12.5,12.5,0,0,0,618,69a12.25,12.25,0,0,0-3,5.31c.72-.5,3.39-2.88,4.55-3.51a17.63,17.63,0,0,1,4.74-2.31,19.5,19.5,0,0,1,5.22-.92A40.3,40.3,0,0,1,635.17,67.77Z"/><path class="cls-5" d="M653.42,330.11S662,388,606.05,398s-125.46,7.08-125.46,7.08L470.92,538l-29.19,1.49S366.59,354.85,470.6,326l93.47.46,38.49-2.75s39-9.62,39.4-7.79S652.5,331,653.42,330.11Z"/><path class="cls-2" d="M704.79,330.41s8.53,57.86-47.37,67.94S532,405.42,532,405.42l-9.68,132.9-29.19,1.49S418,355.15,522,326.29l93.47.46L653.93,324s39-9.63,39.41-7.79S703.88,331.33,704.79,330.41Z"/><path class="cls-4" d="M634.38,140.57s-38.49,4.88-48.26,12.82S529.3,278,529.3,278l39.1,45.82,83.09.62s62.31,33.6,101.41,1.83,18.94-142.35-3.66-166.18-62.93-23.21-62.93-23.21S649.66,162.56,634.38,140.57Z"/><path class="cls-9" d="M708.92,198.6a161,161,0,0,0-2.82,19.29c-.33,3.24-.48,6.49-.66,9.74s-.18,6.51-.13,9.77a127.49,127.49,0,0,0,1.6,19.5c1.09,6.43,2.68,12.87,5.67,18.68a96.34,96.34,0,0,1-3.73-18.94c-.7-6.39-1-12.83-1-19.27s0-12.9.23-19.35S708.57,205.09,708.92,198.6Z"/><path class="cls-9" d="M593.76,194.33c-1.76,9.46-3.63,18.89-5.52,28.3s-3.93,18.79-6.21,28.11-4.75,18.57-7.77,27.64a137.71,137.71,0,0,1-5.19,13.36A51.71,51.71,0,0,1,561.68,304c3.54-3.3,6.14-7.49,8.49-11.7a111.93,111.93,0,0,0,5.93-13.24c1.73-4.52,3.22-9.12,4.62-13.74s2.6-9.3,3.75-14,2.17-9.4,3.12-14.12,1.82-9.47,2.57-14.22C591.74,213.48,593,203.92,593.76,194.33Z"/><path class="cls-17" d="M574.41,297.44c.25-1.94,14.93-4.1,20.33-4.38,4.09-.21,31.2-1.11,40.42-1.53l-.68,2.37.14,10.47,1.51,6.94c-8.09.51-27.86,1.29-32,2.1-5.5,1.09-15,5.23-15,5.23s-4-.9,1.07-3.07a24.41,24.41,0,0,0,8.1-5.8c.69-.77-.06-2.15-.57-2-13.72,3.6-15.14,4.19-15.14,4.19s-16.13-.09-.09-3.72c9.62-2.17,13.07-3.43,13.92-4.51.37-.46-.28-2-.87-2.06-8.33-.52-23.29,2.44-19.19.5,3.34-1.58,13.86-3.31,17.95-4,.25,0,.66-1.57-.46-1.66C585.9,295.87,574.19,299.23,574.41,297.44Z"/><path class="cls-9" d="M718.31,274c-3.38.82-6.71,1.76-10.11,2.47s-6.78,1.39-10.17,2.1c-6.81,1.25-13.64,2.33-20.49,3.29s-13.73,1.73-20.62,2.39-13.84,1.27-20.63,1.65l-.91.05-.2.79a54.86,54.86,0,0,0-1.26,6.85,57.23,57.23,0,0,0-.4,6.92,44.71,44.71,0,0,0,.6,6.93,31.93,31.93,0,0,0,2,6.68l.08.19.15.1,7.54,5.06c2.52,1.69,5,3.36,7.59,5-2.37-1.9-4.76-3.76-7.15-5.61l-7.2-5.55.23.28a30.28,30.28,0,0,1-1.58-6.42,44.69,44.69,0,0,1-.33-6.65,64.69,64.69,0,0,1,.61-6.65,53.63,53.63,0,0,1,1.34-6.51l-1.12.84c3.59-.09,7-.32,10.48-.58s6.94-.53,10.4-.89c6.92-.72,13.82-1.58,20.7-2.68s13.7-2.45,20.47-4.05c3.37-.86,6.75-1.69,10.07-2.74S715,275.14,718.31,274Z"/><path class="cls-9" d="M400.6,219.68H550.89l42.62,104H665.9a3.67,3.67,0,0,1,3.67,3.67h0A3.66,3.66,0,0,1,665.9,331H450.55Z"/><path class="cls-12" d="M475.13,279c.88,4.44,4.75,7.4,8.63,6.62s6.3-5,5.41-9.43-4.75-7.39-8.62-6.62S474.24,274.6,475.13,279Z"/><path class="cls-21" d="M603.28,29.64s-12.84.41.63-10.44S653.53-4.37,676.7,7.86c0,0,4.63-9.85,11.33-7.5s-4.35,9.13-4.35,9.13,8.55-.27,11.16,3.92c1.93,3.11-3.31,3.24-6.17,3.1,4.87.83,23.54,12.62,14.17,50.26-3.33-.73-22.31-28.25-22.31-28.25s-43.4,24.11-39.11,4.94c0,0-45,28.06-38.58,4.88C602.84,48.34,585.45,49.61,603.28,29.64Z"/><path class="cls-21" d="M702.87,67a8.18,8.18,0,0,0-7.45,1.8C691.55,71.87,692,82.65,692,82.65S673.53,94.54,675.47,44.2c2.07-53.55,15.39,4.3,15.39,4.3Z"/><path class="cls-9" d="M1572.24,531.74l-7.15,16a2.62,2.62,0,0,0,1.32,3.46l37.34,16.74a3,3,0,0,0,3.69-4.33L1593,541S1581.56,543.13,1572.24,531.74Z"/><path class="cls-9" d="M1523.85,529.85l-7.15,15.94a2.62,2.62,0,0,0,1.31,3.46L1555.36,566a3,3,0,0,0,3.68-4.33l-14.45-22.52S1533.17,541.24,1523.85,529.85Z"/><path class="cls-23" d="M1480.2,13.4s40.7-6.86,54.35,38.61L1517.7,77.24s-35.35-13.58-35.49-14.91S1480.2,13.4,1480.2,13.4Z"/><path class="cls-23" d="M1414.7,33.89s-11.87,17.85-17.93,24.93c-15.23,17.8-17.19,12.22-26.66,27.53-10.22,16.53.12,26.89,6,31.65s-4,22.39,7,32.27c14.33,12.93,27.59.73,37.45,8s12,18,35.39,15.95,23.15-78.45,23.15-78.45S1460,55.24,1459.2,54.9,1414.7,33.89,1414.7,33.89Z"/><path class="cls-23" d="M1534.55,52s1.4,14,6,22.1c11.66,20.32,18,13.66,24.41,30.47,7,18.14-5.1,26.39-11.76,30S1553,157.3,1540.39,165c-16.49,10.05-27.25-4.4-38.29.9S1487,181.32,1464.37,175s-8.2-81.38-8.2-81.38,26.32-36.26,27.12-36.45S1534.55,52,1534.55,52Z"/><path class="cls-17" d="M1475.5,142.51s-39-7.18-56.94-6.57,10.87,47.24,10.87,47.24l29.3.65s18-20.06,16.77-22.39.06-17.64.06-17.64Z"/><path class="cls-17" d="M1440.72,105.29l-10.29,31.22s9,18.53,36.4,10.54c0,0-3.14-6.47,1.06-19.79C1472.18,113.65,1440.72,105.29,1440.72,105.29Z"/><path class="cls-24" d="M1440.72,105.29l-4.82,14.58c2.87,10.67,12.21,17.93,29.81,20.18a42.72,42.72,0,0,1,2.18-12.79C1472.18,113.65,1440.72,105.29,1440.72,105.29Z"/><path class="cls-19" d="M1503.48,82.42c-2.22,5.07-.74,10.63,3.32,12.41s9.15-.89,11.38-6,.74-10.62-3.32-12.41S1505.71,77.35,1503.48,82.42Z"/><path class="cls-17" d="M1504.62,105.45a79.06,79.06,0,0,0,4.81-19.59c.17-1.31.4-2.6.66-3.9a42.84,42.84,0,1,0-84.81-9.66,9.23,9.23,0,0,0-8.32-.87c-5.14,2.13-7.15,9.07-4.48,15.5s9,9.91,14.14,7.78a8.45,8.45,0,0,0,2-1.16c1.58,21,18.33,37.66,39,37.87C1483,131.58,1498.23,122.19,1504.62,105.45Z"/><path class="cls-19" d="M1477.72,73.27a26.06,26.06,0,0,0-1.37,7.22,19.93,19.93,0,0,0,.13,3.77,9.6,9.6,0,0,0,1.29,3.85c.94,1.2,1.43,1.6,1.57,2.56a3.31,3.31,0,0,1-.82,2.53c-1.3,1.62-3.58,2.51-6,3a8.33,8.33,0,0,0,7.28-1.74,5,5,0,0,0,1.7-4c-.12-1.66-.86-2.4-1.83-3.66a9,9,0,0,1-1.06-2.93,30.93,30.93,0,0,1-.49-3.42C1478,78.12,1477.86,75.72,1477.72,73.27Z"/><path class="cls-20" d="M1463.6,76.45a3.75,3.75,0,1,1-3.07-3.14A3.75,3.75,0,0,1,1463.6,76.45Z"/><path class="cls-20" d="M1495.69,78.88a3.74,3.74,0,1,1-3.07-3.14A3.75,3.75,0,0,1,1495.69,78.88Z"/><path class="cls-25" d="M1463,105.47a12.58,12.58,0,0,1,10.38,1.39s5.44-3.41,9.73-.16a10.33,10.33,0,0,1-10.93,7.56A9.24,9.24,0,0,1,1463,105.47Z"/><path class="cls-19" d="M1458.29,102.57a27.56,27.56,0,0,0,3.18,2.23,25.75,25.75,0,0,0,3.4,1.81,23,23,0,0,0,7.33,2,19.72,19.72,0,0,0,7.51-.83,27.76,27.76,0,0,0,6.89-3.44,23.27,23.27,0,0,1-3.11,2.38,22,22,0,0,1-3.53,1.77,17.71,17.71,0,0,1-3.85,1,19,19,0,0,1-4,.11,20.62,20.62,0,0,1-7.58-2.26A22.64,22.64,0,0,1,1458.29,102.57Z"/><path class="cls-23" d="M1468,68.43a38.54,38.54,0,0,0-5.52-1.11,18.75,18.75,0,0,0-5.19.07,17.66,17.66,0,0,0-5,1.51c-1.22.43-4.18,2.32-4.95,2.69a12,12,0,0,1,3.75-4.67,12.14,12.14,0,0,1,5.71-2.44,12.62,12.62,0,0,1,6.17.59A11.58,11.58,0,0,1,1468,68.43Z"/><path class="cls-23" d="M1484.55,69.68a11.5,11.5,0,0,1,5.34-2.73,12.65,12.65,0,0,1,6.2.16,12.59,12.59,0,0,1,8.53,8.22c-.73-.47-3.43-2.71-4.6-3.28a17.28,17.28,0,0,0-4.72-2.1,18.9,18.9,0,0,0-5.15-.71A38.27,38.27,0,0,0,1484.55,69.68Z"/><path class="cls-14" d="M1407.66,333.31s-11.51,54.14,40.69,67,118.07,14.16,118.07,14.16l1.22,126.1,27.47,3.15s82-169.92-14.53-203.39l-88.32-5.14-36.18-4.89s-36.22-11.41-36.76-9.71S1408.47,334.23,1407.66,333.31Z"/><path class="cls-3" d="M1359.11,330.54s-11.5,54.13,40.7,67,118.07,14.16,118.07,14.16l1.22,126.1,27.47,3.15s82-169.93-14.53-203.4l-88.32-5.14-36.18-4.89s-36.22-11.41-36.76-9.7S1359.93,331.46,1359.11,330.54Z"/><path class="cls-8" d="M1533.66,415.31c-1.5-.28-3-.53-4.49-.88s-3-.75-4.4-1.18c-.73-.23-1.47-.48-2.18-.74a17.38,17.38,0,0,0,2.21-.64,18.46,18.46,0,0,0,4-2.06,21.22,21.22,0,0,0,6-6.55l-1.5,1.63c-.53.5-1,1-1.59,1.5a22.55,22.55,0,0,1-3.47,2.57,20.45,20.45,0,0,1-3.88,1.82,15,15,0,0,1-4.1.83l-2.44.09,2.16,1a29.35,29.35,0,0,0,4.44,1.56c1.5.41,3,.71,4.54,1s3,.46,4.59.58,3.08.18,4.61.18C1536.69,415.77,1535.17,415.58,1533.66,415.31Z"/><path class="cls-17" d="M1519.84,218.5s3.55,88.46,13.5,102.31l-54.71-12.43V212.11Z"/><path class="cls-2" d="M1496.53,230.58s-7.62,22.27-9,34.09c-3.44,29.37.3,50.08,6.37,66.8,8.53,23.44-61.09,14.92-62.52,14.21s-61.09-23.8-61.09-23.8l-11.37-33V230.58l3.19-26.64Z"/><path class="cls-17" d="M1329.79,203.94l43.81,14.92s-7.58,70.1-5.21,80c2,8.51,33.8,25.41,53.93,34.87a20.3,20.3,0,0,0,10.38,1.88c11.47-.94,31.8-2.71,35-2.93,5-.35,18.79,0,19.23,1.76s-10.76-.16-18,1.33c-1,.21-.48,1.57-.24,1.58,3.84.15,13.74.57,17,1.65,4,1.33-10.12.28-17.75,1.68-.54.1-1,1.62-.58,2,.91.9,4.23,1.68,13.35,2.61,15.2,1.56.33,3.44.33,3.44s-1.37-.39-14.44-2.18c-.47-.06-1,1.29-.29,1.93a22.57,22.57,0,0,0,8.11,4.44c4.9,1.45,1.34,2.72,1.34,2.72s-9.26-2.76-14.46-3.15c-3.89-.29-22.21,1.2-29.73,1.63l-.57-1.29c-10.19-.29-91.47-2.4-99.3-52.78C1323.63,248.22,1329.79,203.94,1329.79,203.94Z"/><path class="cls-9" d="M1648.24,254.14H1508.63L1469,350.76h-67.25a3.41,3.41,0,0,0-3.41,3.41h0a3.41,3.41,0,0,0,3.41,3.41h200.06Z"/><path class="cls-12" d="M1567.33,309.28c-.82,4.12-4.41,6.87-8,6.15s-5.86-4.64-5-8.76,4.42-6.88,8-6.15S1568.16,305.16,1567.33,309.28Z"/><path class="cls-2" d="M1475.5,142.51s-26.51,31-56.94-6.57c0,0-33.24-2.71-57.75,14.69s-39.19,56.51-39.19,56.51,44.4,22.38,55.42,23.44H1500.3a109.37,109.37,0,0,0,36.94-10.66S1534.12,157.78,1475.5,142.51Z"/><path class="cls-5" d="M1393.24,195.31c-1.14,3.84-2.17,7.71-3.19,11.58-1.91,7.61-3.67,14.85-5,22.63a41.87,41.87,0,0,1-7.49-.58c-12.8-2.28-21.21-5.86-32.61-10.53-17.07-7.78-14.77-7-23.37-11.27A224.75,224.75,0,0,0,1344.28,220c10,4.63,19.53,8.91,33,11.28,5.87.8,7.56.62,9.79.37.86-5.7,1.86-11.54,4.58-24.34l2.54-11.71,2.61-11.72C1395.5,187.63,1394.38,191.47,1393.24,195.31Z"/><path class="cls-5" d="M1490.49,174.84q2.61,6.82,4.73,13.71a119.36,119.36,0,0,1,3.42,14,65.68,65.68,0,0,1,1.13,14.2c-.18,4.74-7.21,27.07-9.28,31.49,2.92-3.92,10.58-26.44,11.09-31.35a51,51,0,0,0-.64-14.75,77.48,77.48,0,0,0-4-14.14A73.9,73.9,0,0,0,1490.49,174.84Z"/><path class="cls-23" d="M1425.28,72.3s45.54-11,67.3-41.93c0,0,.38-28.19-41.43-21.79C1410.52,14.79,1401,54.32,1425.28,72.3Z"/></g></g></g></svg>