<?xml version="1.0" encoding="utf-8"?>
<!-- Generator: Adobe Illustrator 23.0.5, SVG Export Plug-In . SVG Version: 6.00 Build 0)  -->
<svg version="1.1" id="Layer_1" xmlns="http://www.w3.org/2000/svg" xmlns:xlink="http://www.w3.org/1999/xlink" x="0px" y="0px"
	 viewBox="0 0 1846.8 1384.1" style="enable-background:new 0 0 1846.8 1384.1;" xml:space="preserve">
<style type="text/css">
	.st0{fill:#3797DB;}
	.st1{fill:#5479D1;}
	.st2{fill:#4E47D6;}
	.st3{fill:#3B77BE;}
	.st4{fill:#BFE6F2;}
	.st5{opacity:0.3;fill:#A5DEF7;enable-background:new    ;}
	.st6{fill:#FFFFFF;}
	.st7{fill:#1D3370;}
	.st8{fill:#ADCFD8;}
	.st9{fill:#55769F;}
	.st10{fill:#A5DEF7;}
	.st11{fill:#62BDF3;}
	.st12{fill:#705FA6;}
	.st13{opacity:0.5;fill:#55769F;enable-background:new    ;}
	.st14{fill:#EFAC7F;}
	.st15{fill:#462691;}
	.st16{fill:#D19369;}
	.st17{fill:#333333;}
	.st18{fill:#282828;}
	.st19{opacity:0.5;fill:#705FA6;enable-background:new    ;}
	.st20{fill:#5E2E0D;}
	.st21{opacity:0.6;fill:#D19369;enable-background:new    ;}
	.st22{opacity:0.3;fill:#F99893;enable-background:new    ;}
</style>
<title>bg</title>
<path id="star9" class="st0" d="M809.9,237.5c0,0-2.4,23.6-21,25.2c18.6,1.6,21,25.2,21,25.2s2.4-23.6,21-25.2
	C812.3,261.1,809.9,237.5,809.9,237.5z"/>
<path id="star8" class="st1" d="M379.1,23c0,0-3.2,31.4-28,33.6c24.8,2.2,28,33.6,28,33.6s3.2-31.4,28-33.6
	C382.2,54.4,379.1,23,379.1,23z"/>
<path id="star7" class="st1" d="M1205.7,284.4c0,0-2.1,20.8-18.5,22.2c16.4,1.4,18.5,22.2,18.5,22.2s2.1-20.8,18.5-22.2
	C1207.8,305.2,1205.7,284.4,1205.7,284.4z"/>
<path id="star6" class="st1" d="M148.2,590.7c0,0-3.2,31.4-28,33.6c24.8,2.2,28,33.6,28,33.6s3.2-31.4,28-33.6
	C151.4,622.1,148.2,590.7,148.2,590.7z"/>
<path id="star5" class="st2" d="M227.6,317.4c0,0-2.1,21.1-18.8,22.5c16.6,1.5,18.8,22.5,18.8,22.5s2.1-21.1,18.8-22.5
	C229.8,338.5,227.6,317.4,227.6,317.4z"/>
<path id="star4" class="st2" d="M1724.7,786c0,0-3.2,31.4-28,33.6c24.8,2.2,28,33.6,28,33.6s3.2-31.4,28-33.6
	C1727.9,817.4,1724.7,786,1724.7,786z"/>
<path id="star3" class="st0" d="M28,505.9c0,0-3.2,31.4-28,33.6c24.8,2.2,28,33.6,28,33.6s3.2-31.4,28-33.6
	C31.1,537.3,28,505.9,28,505.9z"/>
<path id="star2" class="st0" d="M1818.8,442.4c0,0-3.2,31.4-28,33.6c24.8,2.2,28,33.6,28,33.6s3.2-31.4,28-33.6
	C1822,473.8,1818.8,442.4,1818.8,442.4z"/>
<path id="star1" class="st2" d="M1087.7,56.5c0,0-3.2,31.4-28,33.6c24.8,2.2,28,33.6,28,33.6s3.2-31.4,28-33.6
	C1090.9,88,1087.7,56.5,1087.7,56.5z"/>
<path id="star0" class="st1" d="M1548.7,245.1c0,0-1.7,19.8-15.2,21.2c13.5,1.4,15.2,21.2,15.2,21.2s1.7-19.8,15.2-21.2
	C1550.4,264.9,1548.7,245.1,1548.7,245.1z"/>
<g id="Tab">
	<path class="st3" d="M357.1,392.9h1235.3c25.5,0,46.1,20.6,46.1,46.1v878.3c0,25.5-20.6,46.1-46.1,46.1H357.1
		c-25.5,0-46.1-20.6-46.1-46.1V439C311,413.6,331.6,392.9,357.1,392.9z"/>
	<path class="st4" d="M360.1,430.8h1184.4l0,0v894.8l0,0H360.1c-8.1,0-14.7-6.6-14.7-14.7V445.5C345.4,437.4,352,430.8,360.1,430.8
		L360.1,430.8z"/>
	<path class="st5" d="M1626.4,878.2c0,18.6-15.1,33.7-33.7,33.7s-33.7-15.1-33.7-33.7c0-18.6,15.1-33.7,33.7-33.7
		S1626.4,859.6,1626.4,878.2L1626.4,878.2z"/>
	<rect x="394" y="549.5" class="st6" width="1094.2" height="760.8"/>
	<path class="st2" d="M510,1141.2l-38.2-0.7c-13.3-24.1-23-45-23-45c43.2-10,79.7-5.9,110,5.8l16.7,40.6l3.6-31.3
		c75.3,40.6,106.3,126.6,106.3,126.6s-133-14.2-161.2-27.3c-10.9-5.1-24.6-23.3-37.4-43.8C497,1156.6,510,1141.2,510,1141.2z"/>
	<path class="st7" d="M448.7,1095.6c0,0,170.8,71.9,236.6,141.8c0,0-133-14.2-161.2-27.3c-10.9-5.1-24.6-23.3-37.4-43.8
		c10.2-9.7,23.2-25,23.2-25l-38.2-0.7C458.5,1116.5,448.7,1095.6,448.7,1095.6z"/>
	<path class="st2" d="M454.2,1210.4c20.9-12.9,44.3-21.2,68.6-24.5c6.6,8.2,14.7,17.8,14.7,17.8l0.8-19.2
		c86.1-3.9,157.5,53.8,157.5,53.8c-49.9,31.4-92.5,40.1-127.3,37.3c-2.1-6.7-5-16.7-5-16.7l-6.2,15.4c-15.4-2.4-30.3-7.2-44.2-14.2
		c3.3-8,6.7-17.1,6.7-17.1l-18.6,10.5C470.2,1234.5,454.2,1210.4,454.2,1210.4z"/>
	<path class="st7" d="M568.5,1275.7c-2.1-6.7-5-16.7-5-16.7l-6.2,15.4c-15.4-2.4-30.3-7.2-44.2-14.2c3.3-8,6.7-17.1,6.7-17.1
		l-18.6,10.5c-31.1-19-47.1-43.1-47.1-43.1c100.4-11.6,241.7,27.9,241.7,27.9C646,1269.8,603.4,1278.5,568.5,1275.7z"/>
	<path class="st0" d="M915.1,1076.3l-133.2,53.5L617.1,719.3l112.6-45.2c11.4-4.6,24.3,0.9,28.9,12.3l0,0L915.1,1076.3z"/>
	
		<rect x="642" y="722.4" transform="matrix(0.9847 -0.1745 0.1745 0.9847 -145.9902 148.5029)" class="st8" width="259" height="364.1"/>
	
		<rect x="688.3" y="760.8" transform="matrix(0.9847 -0.1745 0.1745 0.9847 -121.5398 141.8866)" class="st9" width="115.6" height="2.6"/>
	
		<rect x="662.8" y="754.3" transform="matrix(0.9847 -0.1745 0.1745 0.9847 -120.424 141.5772)" class="st9" width="164.2" height="2.6"/>
	
		<rect x="651.2" y="787.6" transform="matrix(0.9847 -0.1745 0.1745 0.9847 -126.1441 143.1176)" class="st9" width="199.2" height="2.6"/>
	
		<rect x="653.4" y="799.9" transform="matrix(0.9847 -0.1745 0.1745 0.9847 -128.2568 143.6903)" class="st9" width="199.2" height="2.6"/>
	
		<rect x="657.8" y="824.5" transform="matrix(0.9847 -0.1745 0.1745 0.9847 -132.4819 144.8358)" class="st9" width="199.2" height="2.6"/>
	
		<rect x="659.9" y="836.9" transform="matrix(0.9847 -0.1745 0.1745 0.9847 -134.6131 145.3951)" class="st9" width="199.2" height="2.6"/>
	
		<rect x="662.1" y="849.1" transform="matrix(0.9847 -0.1745 0.1745 0.9847 -136.7088 145.9632)" class="st9" width="199.2" height="2.6"/>
	
		<rect x="671.7" y="903.2" transform="matrix(0.9847 -0.1745 0.1745 0.9847 -146.0011 148.4715)" class="st9" width="199.2" height="2.6"/>
	
		<rect x="674" y="915.9" transform="matrix(0.9847 -0.1745 0.1745 0.9847 -148.1826 149.0649)" class="st9" width="199.2" height="2.6"/>
	
		<rect x="676.2" y="928.7" transform="matrix(0.9847 -0.1745 0.1745 0.9847 -150.3818 149.6478)" class="st9" width="199.2" height="2.6"/>
	
		<rect x="678.5" y="941.4" transform="matrix(0.9847 -0.1745 0.1745 0.9847 -152.5634 150.2413)" class="st9" width="199.2" height="2.6"/>
	
		<rect x="680.7" y="954.2" transform="matrix(0.9847 -0.1745 0.1745 0.9847 -154.7625 150.8242)" class="st9" width="199.2" height="2.6"/>
	
		<rect x="683" y="967" transform="matrix(0.9847 -0.1745 0.1745 0.9847 -156.961 151.4222)" class="st9" width="199.2" height="2.6"/>
	
		<rect x="685.3" y="979.6" transform="matrix(0.9847 -0.1745 0.1745 0.9847 -159.1247 152.014)" class="st9" width="199.2" height="2.6"/>
	
		<rect x="620.1" y="726.3" transform="matrix(0.9684 -0.2496 0.2496 0.9684 -203.0639 215.9082)" class="st10" width="259.4" height="364.7"/>
	
		<rect x="656.8" y="761.5" transform="matrix(0.9671 -0.2544 0.2544 0.9671 -170.5441 206.8887)" class="st0" width="115.6" height="2.6"/>
	
		<rect x="630.8" y="755.2" transform="matrix(0.9671 -0.2544 0.2544 0.9671 -168.9985 206.249)" class="st0" width="164.2" height="2.6"/>
	
		<rect x="621.9" y="787.9" transform="matrix(0.9671 -0.2544 0.2544 0.9671 -177.0341 209.5123)" class="st0" width="199.2" height="2.6"/>
	
		<rect x="625.1" y="800" transform="matrix(0.9671 -0.2544 0.2544 0.9671 -180.0073 210.7247)" class="st0" width="199.2" height="2.6"/>
	
		<rect x="631.4" y="824.1" transform="matrix(0.9671 -0.2544 0.2544 0.9671 -185.9305 213.1193)" class="st0" width="199.2" height="2.6"/>
	
		<rect x="634.6" y="836.2" transform="matrix(0.9671 -0.2544 0.2544 0.9671 -188.9037 214.332)" class="st0" width="199.2" height="2.6"/>
	
		<rect x="636" y="854" transform="matrix(0.9684 -0.2496 0.2496 0.9684 -190.1959 210.7269)" class="st0" width="199.6" height="2.6"/>
	
		<rect x="651.8" y="901.4" transform="matrix(0.9671 -0.2544 0.2544 0.9671 -204.9245 220.8538)" class="st0" width="199.2" height="2.6"/>
	
		<rect x="655.1" y="913.9" transform="matrix(0.9671 -0.2544 0.2544 0.9671 -207.9955 222.1042)" class="st0" width="199.2" height="2.6"/>
	
		<rect x="656.4" y="932.5" transform="matrix(0.9684 -0.2496 0.2496 0.9684 -209.138 218.3023)" class="st0" width="199.6" height="2.6"/>
	
		<rect x="661.7" y="938.9" transform="matrix(0.9671 -0.2544 0.2544 0.9671 -214.1376 224.6057)" class="st0" width="199.2" height="2.6"/>
	
		<rect x="664.9" y="951.5" transform="matrix(0.9671 -0.2544 0.2544 0.9671 -217.2396 225.8335)" class="st9" width="199.2" height="2.6"/>
	
		<rect x="666.1" y="970.2" transform="matrix(0.9684 -0.2496 0.2496 0.9684 -218.2409 221.9158)" class="st9" width="199.6" height="2.6"/>
	
		<rect x="671.5" y="976.5" transform="matrix(0.9671 -0.2544 0.2544 0.9671 -223.3816 228.3348)" class="st9" width="199.2" height="2.6"/>
	<path class="st11" d="M864.6,1096.6l-268.1,107.7L440.1,814.9l225.3-139c11.3-6.9,26.1-3.4,33,7.9c0.7,1.2,1.3,2.4,1.8,3.6
		L864.6,1096.6z"/>
	<path class="st1" d="M956.8,693l30.8-22.6c-3-27.3-7.2-50-7.2-50c-41,16.8-68.4,41.2-86.5,68.2l9.8,42.9l-21-23.5
		c-38,76.6-13.7,164.7-13.7,164.7s100.5-88.4,116-115.4c6-10.4,6.7-33.2,5.3-57.3C976.3,698,956.8,693,956.8,693z"/>
	<path class="st12" d="M980.5,620.3c0,0-98,157.3-111.4,252.3c0,0,100.4-88.3,115.9-115.3c6-10.4,6.7-33.2,5.3-57.3
		c-13.9-2-33.4-7-33.4-7l30.8-22.6C984.6,643,980.5,620.3,980.5,620.3z"/>
	<path class="st1" d="M1042.3,717.2c-24.5,1.6-48.4,8.2-70.2,19.6c-0.7,10.5-1.7,23-1.7,23l-11.8-15.2
		C886,791.1,861,879.5,861,879.5c58.9-3.1,98.7-20.6,125.5-43c-2.2-6.7-5.6-16.6-5.6-16.6l13.9,9c11.2-10.8,20.6-23.4,27.9-37.1
		c-7.3-4.6-15.3-10.1-15.3-10.1l21.2-2.1C1043.1,746.2,1042.3,717.2,1042.3,717.2z"/>
	<path class="st12" d="M986.6,836.5c-2.2-6.7-5.6-16.5-5.6-16.5l13.9,9c11.2-10.8,20.6-23.4,27.9-37.1c-7.3-4.6-15.3-10.1-15.3-10.1
		l21.2-2.1c14.4-33.5,13.6-62.5,13.6-62.5c-88.7,48.5-181.2,162.3-181.2,162.3C920,876.4,959.7,859,986.6,836.5z"/>
	<path class="st2" d="M1288.8,829.3h18.3c-3.2-2.2-7-3.3-10.8-3.3H837c-24,0-43.5,17.3-43.5,38.6v24.5c0,21.3,19.5,38.6,43.5,38.6
		l454.1-0.1L1288.8,829.3z"/>
	<path class="st4" d="M832,889.1v-24.5c0-21.3,19.5-38.6,43.5-38.6h-9.9c-24,0-43.5,17.3-43.5,38.6v24.5c0,21.3,19.5,38.6,43.5,38.6
		h9.7C851.4,927.6,832,910.3,832,889.1z"/>
	<path class="st4" d="M939.6,889.1v-24.5c0-21.3,19.5-38.6,43.5-38.6h-9.9c-24,0-43.5,17.3-43.5,38.6v24.5
		c0,21.3,19.5,38.6,43.5,38.6h9.7C959,927.6,939.6,910.3,939.6,889.1z"/>
	<path class="st7" d="M1028,826.1c-23,0-41.6,16.5-41.6,36.9v27.7c0,20.4,18.6,36.9,41.6,36.9h285.9v-6.2h-1.2l-72.7-6.1l-14.7-51.1
		c0,0,28.3-28.2,30.2-29s57.2-2.9,57.2-2.9h1.2v-6.2L1028,826.1z"/>
	<path class="st4" d="M1295.4,876.6c0-29.9,17.4-44.3,17.4-44.3h-278.9c-21.1,0-38.2,15.2-38.2,33.9v21.3
		c0,18.7,17.1,33.9,38.2,33.9h278.9C1312.8,921.3,1295.4,914.2,1295.4,876.6z"/>
	<path class="st10" d="M995.7,866.2v21.3c0,2.7,0.4,5.5,1.1,8.1c9.4-20.4,27.4-40,61.8-46.4c80.1-14.8,254.3-16.9,254.3-16.9H1034
		C1012.8,832.3,995.7,847.5,995.7,866.2z"/>
	<path class="st7" d="M1281.2,1032.4h20.8c-3.5-2.7-7.8-4.1-12.3-4.1H769.9c-27.2,0-49.3,21.6-49.3,48.3v30.7
		c0,26.7,22,48.3,49.3,48.3l514-0.2L1281.2,1032.4z"/>
	<path class="st2" d="M986.1,1028.4c-26,0-47.1,20.7-47.1,46.2v34.7c0,25.5,21.1,46.2,47.1,46.2h323.6v-7.8h-1.3l-82.3-7.6l-16.6-64
		c0,0,32.1-35.3,34.2-36.3s64.7-3.7,64.7-3.7h1.3v-7.7L986.1,1028.4z"/>
	<path class="st4" d="M1288.7,1091.7c0-37.4,19.7-55.5,19.7-55.5H992.7c-23.9,0-43.3,19-43.3,42.4v26.7c0,23.4,19.4,42.4,43.3,42.4
		h315.7C1308.4,1147.7,1288.7,1138.8,1288.7,1091.7z"/>
	<path class="st10" d="M949.5,1078.6v26.7c0,3.4,0.4,6.8,1.3,10.2c10.7-25.5,31.1-50.1,69.9-58c90.7-18.5,287.8-21.2,287.8-21.2
		H992.7C968.8,1036.2,949.5,1055.2,949.5,1078.6z"/>
	<path class="st0" d="M703.5,930.6h-20.8c3.7-2.2,8-3.3,12.3-3.3h520c27.2,0,49.3,17.2,49.3,38.3V990c0,21.2-22.1,38.3-49.3,38.3
		l-514.2-0.1L703.5,930.6z"/>
	<path class="st3" d="M998.7,927.5c26,0,47.1,16.4,47.1,36.6v27.5c0,20.2-21.1,36.6-47.1,36.6H675v-6.2h1.3l82.3-6.1l16.6-50.7
		c0,0-32.1-28-34.2-28.8s-64.7-2.9-64.7-2.9H675v-6.1L998.7,927.5z"/>
	<path class="st4" d="M696,977.7c0-29.7-19.7-44-19.7-44h315.8c23.9,0,43.3,15.1,43.3,33.7v21.2c0,18.6-19.4,33.7-43.3,33.7H676.3
		C676.3,1022.1,696,1015,696,977.7z"/>
	<path class="st10" d="M1035.4,967.3v21.2c0,2.7-0.4,5.5-1.3,8.1c-10.7-20.3-31.1-39.8-69.9-46.1c-90.7-14.7-287.9-16.8-287.9-16.8
		h315.8C1016,933.6,1035.4,948.7,1035.4,967.3z"/>
	<path class="st13" d="M1169,990v-24.3c0-21.2-22.1-38.3-49.3-38.3h49.4c27.2,0,49.3,17.2,49.3,38.3V990c0,21.2-22.1,38.3-49.3,38.3
		h-48.7C1147.3,1028,1169,1011,1169,990z"/>
	<path class="st1" d="M664.2,1159.4h-22.4c4-2.4,8.6-3.7,13.2-3.6h560.6c29.3,0,53.1,19.2,53.1,42.8v27.2
		c0,23.6-23.8,42.8-53.1,42.8l-554.3-0.2L664.2,1159.4z"/>
	<path class="st12" d="M982.5,1155.9c28,0,50.8,18.3,50.8,40.9v30.7c0,22.6-22.7,40.9-50.8,40.9h-349v-6.9h1.5l88.7-6.8l17.9-56.7
		c0,0-34.6-31.3-36.9-32.1s-69.8-3.3-69.8-3.3h-1.4v-6.8L982.5,1155.9z"/>
	<path class="st4" d="M656.2,1212c0-33.2-21.3-49.2-21.3-49.2h340.4c25.8,0,46.7,16.8,46.7,37.6v23.6c0,20.8-20.9,37.6-46.7,37.6
		H634.9C634.9,1261.6,656.2,1253.7,656.2,1212z"/>
	<path class="st10" d="M1022,1200.3v23.7c0,3.1-0.5,6.1-1.4,9c-11.5-22.6-33.5-44.4-75.4-51.5c-97.8-16.4-310.3-18.8-310.3-18.8
		h340.4C1001.1,1162.8,1022,1179.6,1022,1200.3z"/>
	<rect x="1180.5" y="1234.1" class="st4" width="236.2" height="13.1"/>
	<path class="st4" d="M1410.1,1132.7l3.6,16.5c1.4,6.3-2.6,12.5-8.9,13.9h-0.1l-210.9,44.5c-6.3,1.3-12.5-2.7-13.8-9
		c0-0.1-0.1-0.3-0.1-0.4l-1.8-10.8c-0.8-4.9,1.5-9.8,5.9-12.2l63.2-34.3c1.3-0.7,2.8-1.2,4.3-1.3l144.7-15.6l1-0.1
		C1403.2,1122.8,1408.8,1126.8,1410.1,1132.7z"/>
	<path class="st3" d="M1196.8,1181.7c0,0-30.1,21.9-8.2,58.1l-1.3,9.3l-38.6,2.6l-35.4-7.2l-6.6-58.9l84.8-25.2L1196.8,1181.7z"/>
	<path class="st0" d="M1436.4,1268.6h-328c-3.1,0-5.6-2.5-5.6-5.6v-17.5c0-3.1,2.5-5.6,5.6-5.6h328c3.1,0,5.6,2.5,5.6,5.6v17.5
		C1442,1266,1439.5,1268.6,1436.4,1268.6z"/>
	<path class="st0" d="M1434.4,1129l-241.1,56.8c-1.9,0.5-3.9,0.4-5.8-0.2c-9.5-2.7-41.7-9.5-68.7,13.6c-4.8,4.1-12,3.6-16.2-1.2
		c-1.1-1.3-1.9-2.7-2.4-4.4l-4.3-15.2c-1.4-4.9,0.7-10.2,5-12.9c35-21.9,188.2-113.6,289.1-106.7c9.5,0.7,18.1,6,22.9,14.2
		l26.3,44.5c2.1,3.6,0.9,8.3-2.7,10.4C1435.9,1128.5,1435.2,1128.8,1434.4,1129z"/>
	<path class="st11" d="M1136,1216.8c0,8,6.4,14.4,14.4,14.4s14.4-6.4,14.4-14.4s-6.4-14.4-14.4-14.4l0,0
		C1142.4,1202.4,1136,1208.8,1136,1216.8z"/>
	<polygon class="st0" points="487.6,857.9 670.2,753.5 694.8,802.4 508,901.2 	"/>
	<path class="st10" d="M1602.8,892.2h-20.1c-2.2,0-4-1.8-4-4v-20.1c0-2.2,1.8-4,4-4h20.1c2.2,0,4,1.8,4,4v20.1
		C1606.7,890.4,1605,892.2,1602.8,892.2z M1582.7,865.2c-1.6,0-2.9,1.3-2.9,2.9l0,0v20.1c0,1.6,1.3,2.9,2.9,2.9l0,0h20.1
		c1.6,0,2.9-1.3,2.9-2.9l0,0v-20c0-1.6-1.3-2.9-2.9-2.9l0,0L1582.7,865.2z"/>
	<path class="st7" d="M1488.2,570.3V514c0-19.3-15.7-35-35-35H428.9c-19.3,0-35,15.7-35,35v56.3H1488.2z"/>
	<path class="st6" d="M989.5,502.5h432.4c10.7,0,19.3,8.7,19.3,19.3v5.7c0,10.7-8.7,19.3-19.3,19.3H989.5
		c-10.7,0-19.3-8.7-19.3-19.3v-5.7C970.2,511.1,978.9,502.5,989.5,502.5z"/>
	<path class="st6" d="M484.4,524.7c0,10.6-8.6,19.3-19.3,19.3c-10.6,0-19.3-8.6-19.3-19.3c0-10.6,8.6-19.3,19.3-19.3
		C475.7,505.4,484.4,514,484.4,524.7L484.4,524.7z"/>
	<path class="st6" d="M568.5,524.7c0,10.6-8.6,19.3-19.3,19.3c-10.6,0-19.3-8.6-19.3-19.3s8.6-19.3,19.3-19.3l0,0
		C559.9,505.4,568.5,514,568.5,524.7L568.5,524.7z"/>
	<path class="st6" d="M652.7,524.7c0,10.6-8.6,19.3-19.3,19.3c-10.6,0-19.3-8.6-19.3-19.3c0-10.6,8.6-19.3,19.3-19.3
		C644.1,505.4,652.7,514,652.7,524.7L652.7,524.7z"/>
</g>
<g id="Bottom_Boy">
	<path class="st11" d="M331.3,893.7c-12.8-25.9-42.2-18.8-43.5-18.5l-1.3-5c0.4-0.1,34.6-8.5,49.3,21.2L331.3,893.7z"/>
	<path class="st2" d="M279.3,901.3c0,0-5.4-19,55.1-16.1c5.9,0.3,14.1,4.8,17,10l13.2,23.8c0,0-45.2,16.7-50.5,10.5
		S279.3,901.3,279.3,901.3z"/>
	<path class="st14" d="M246.9,897.1c0,0,18.3-3.8,52.4-1.4s-15.8,21.6-15.8,21.6s-17.5-0.6-18.3-0.7S246.9,897.1,246.9,897.1z"/>
	<rect x="260" y="877.8" class="st14" width="30.3" height="53.1"/>
	<path class="st2" d="M373.3,961.9c0,0,17.7,84.1,12.5,93.2s-72.3,11.9-72.3,11.9l-2.9-108l25.6-38.7L373.3,961.9z"/>
	<polygon class="st14" points="352.1,1213.4 350.7,1337.6 342.8,1356.9 322.8,1337.6 300.7,1213.6 	"/>
	<polygon class="st14" points="214.9,1215.7 206.6,1337.6 214.6,1355.8 233.1,1344.9 256.4,1213.6 	"/>
	<path class="st7" d="M212.1,1080.4l-10.3,226.3c0,0,22.2,12,46.2,1.7l19.7-175.1l17.1-2.6l25.7,173.4c0,0,20.5,15.4,49.6,2.6
		l-20.5-232.3L212.1,1080.4z"/>
	<path class="st14" d="M395.6,932.2l21,9l29.7-39.4l16.6,8.7l-20.6,46.1c-4.6,12.4-16.8,20.2-29.9,19.3l-36.4-2.3L395.6,932.2z"/>
	<path class="st15" d="M308.9,1089.7c0,0,9.5,43.8,36,44.7l-4-44.7H308.9z"/>
	<path class="st15" d="M245.8,1089.7c0,0-9.5,43.8-36,44.7l0.2-4.9L245.8,1089.7z"/>
	<path class="st16" d="M290.3,886.9v-18.1H260v15.4C266.5,887.7,276.2,889.7,290.3,886.9z"/>
	<path class="st14" d="M337.9,814.8c-3.2-1.5-7-1.3-10.1,0.4c1.1-28.6-21.3-52.7-49.9-53.8c-1.3,0-2.6,0-3.9,0
		c-28.6-1.1-52.7,21.2-53.8,49.9c0,1.3-0.1,2.6,0,3.9c-3.1-1.7-6.9-1.9-10.1-0.4c-6.1,3-7.9,11.5-4.2,19.1s11.7,11.3,17.7,8.3
		c0.8-0.4,1.6-0.9,2.3-1.6c3.5,24.6,24,43.1,48.2,42.7c24.1,0.3,44.7-18.1,48.2-42.7c0.7,0.6,1.4,1.1,2.3,1.6c6,3,14-0.7,17.7-8.3
		S344,817.8,337.9,814.8z"/>
	<path class="st17" d="M260.4,825.8c0.1,2.5-1.8,4.6-4.3,4.8c-2.5,0.1-4.6-1.8-4.8-4.3c-0.1-2.5,1.8-4.6,4.3-4.8
		C258.1,821.4,260.2,823.3,260.4,825.8z"/>
	<path class="st17" d="M299.4,826.2c0.1,2.5-1.8,4.6-4.3,4.8c-2.5,0.1-4.6-1.8-4.8-4.3s1.8-4.6,4.3-4.8l0,0
		C297.1,821.8,299.2,823.7,299.4,826.2L299.4,826.2z"/>
	<path class="st18" d="M265.4,816.5c-2.1-0.8-4.3-1.4-6.6-1.8c-2.1-0.4-4.2-0.5-6.3-0.3s-4.2,0.7-6.1,1.6l-0.8,0.3
		c-0.3,0.1-0.5,0.3-0.7,0.4l-1.5,0.7c-1,0.5-2,1.2-3.1,1.7c0.6-1,1.3-2,2.1-2.9s1.8-1.7,2.8-2.4c2.1-1.4,4.5-2.3,7-2.6
		s5,0.1,7.4,1.1C261.8,813.1,263.8,814.6,265.4,816.5z"/>
	<path class="st18" d="M283.6,816.4c1.5-1.9,3.5-3.4,5.8-4.3c2.3-1,4.9-1.4,7.4-1.1c2.5,0.2,4.9,1.1,7,2.5c1,0.7,2,1.5,2.8,2.4
		s1.5,1.9,2.1,2.9c-1.1-0.5-2.1-1.1-3.1-1.6l-1.5-0.7c-0.3-0.1-0.5-0.3-0.7-0.4l-0.8-0.3c-2-0.8-4-1.3-6.1-1.5s-4.2-0.1-6.3,0.3
		C287.9,815,285.7,815.6,283.6,816.4z"/>
	<path class="st16" d="M276.2,819.6c-0.2,2.4-0.1,4.8,0.4,7.1c0.2,1.2,0.6,2.4,1,3.5c0.5,1.2,1.2,2.4,2.1,3.3c1.2,0.9,1.7,1.2,2.1,2
		c0.3,0.8,0.2,1.8-0.2,2.6c-0.9,1.8-2.8,3.2-4.9,4.2c2.6,0,5-1.3,6.5-3.3c0.8-1.2,1.1-2.7,0.7-4.2c-0.5-1.5-1.4-2.1-2.6-3
		c-0.7-0.7-1.3-1.6-1.7-2.5c-0.5-1-0.9-2-1.3-3.1C277.6,824.1,276.9,821.8,276.2,819.6z"/>
	<path class="st1" d="M247.2,895.1l-29.6,5.1c-9.5,1.6-18,6.9-23.8,14.7l-37.3,51l50.4,28.2l-6.8,98.2c0,0,91.5,23.1,147.1-1.7
		l-7.7-134.9l35.1,32.5c0,0,29.1-33.3,31.6-56.4l-65-33.3l-42.8-4.3C298.5,894.2,273.7,921.6,247.2,895.1z"/>
	<path class="st19" d="M200.2,1092.4l6.8-98.2l5.4-30.8l8.3-59l26.1-2.6c0,0,24.6,24,54,0l31.4,6.2l9.3,81.9l5.8,100.7
		C347.3,1090.7,307.3,1115.4,200.2,1092.4z"/>
	<path class="st12" d="M207,994.2c0.4-5.2,1.2-10.4,2.1-15.5s1.9-10.2,3.4-15.3c-0.4,5.2-1.2,10.4-2.1,15.5S208.4,989.1,207,994.2z"
		/>
	<path class="st3" d="M247.1,1040.7c0,0,5.9-1,9.2,3.3l-0.2,11.2l-7.2,3.3c0,0-8.9-7.6-8.3-7.8S247.1,1040.7,247.1,1040.7z"/>
	<polygon class="st3" points="265.5,1113.5 170.5,1140.9 161.3,1071.5 256.3,1044 	"/>
	<polygon class="st10" points="162.6,1129.8 171,1136.8 261.9,1110.8 253.8,1045.3 247.3,1042.6 	"/>
	<polygon class="st10" points="261.9,1110.8 255.4,1105.1 243.6,1092.1 244.3,1056.3 247.3,1042.6 253.8,1045.2 	"/>
	<polygon class="st3" points="255.4,1105.1 160.4,1132.6 152.1,1068.1 247.1,1040.7 	"/>
	<path class="st14" d="M209.9,1089c10.2,0.6,11,0,10.9-1.1c-0.1-0.8-12.4-6.5-20.3-10.1c-25.3-42.8,3.7-99.2,3.7-99.2L174.5,962
		c-41.6,67.8,12,128.8,12,128.8l0.1-0.1c0.9,2,1.5,3.8,1.5,3.8c11,19.9,11.5,19.6,12.3,19.3s-1.4-9.7-0.4-9.7s7.9,11.4,8.4,10.3
		s-4.6-12.4-3.9-12.6s7.3,10.9,8.7,9.9s-6.1-12.9-4.7-13.2s8.9,12.1,10.1,11c1-0.9-7-15-9.6-19.4c-0.2-0.4-0.1-0.9,0.3-1.1
		C209.6,1089,209.7,1089,209.9,1089z"/>
	<path class="st1" d="M156.6,966c0,0,24.6,27.1,50.4,28.2c0,0,1.8-19.4,1.4-20s-6.6-14.2-11.4-16.1s-25.6-5-25.6-5L156.6,966z"/>
	<path class="st11" d="M341.5,898.7c1.3,84.5,34.3,99.8,34.6,100.4l1.4,19.3c0,0-63.8-19-57.1-121.6c0.1-2.7,2.3-4.8,5-4.7
		c0.2,0,0.3,0,0.5,0l11.5,1.7C339.8,894.3,341.5,896.3,341.5,898.7z"/>
	<path class="st16" d="M261.4,847.9c2.5,1.7,5.2,3.1,8,4.1s5.8,1.6,8.7,1.6c3,0,5.9-0.6,8.7-1.7c2.8-1.2,5.3-2.8,7.7-4.7
		c-2.1,2.2-4.6,4.1-7.3,5.4c-1.4,0.7-2.9,1.2-4.4,1.5s-3.1,0.5-4.6,0.5c-3.1,0-6.1-0.7-9-1.9C266.3,851.6,263.6,850,261.4,847.9z"/>
	<path class="st7" d="M234.4,1337.6v21.4c0,1.8-1.4,3.2-3.2,3.2H181c-2,0-3.7-1.6-3.7-3.6c0-1.3,0.6-2.5,1.7-3.1l27.5-17.9
		C206.5,1337.6,218.3,1345.7,234.4,1337.6z"/>
	<path class="st7" d="M322.8,1337.6v21.4c0,1.8,1.4,3.2,3.2,3.2h50.3c2,0,3.6-1.6,3.6-3.6c0-1.3-0.6-2.4-1.7-3.1l-27.5-17.9
		C350.7,1337.6,339,1345.7,322.8,1337.6z"/>
	<path class="st18" d="M319.9,796.9l5.2,31c5.7-19.8,4-33.6,3.3-37.8c-0.1-0.8-0.2-1.5-0.3-2.3c-1-7.9-14.9-15.2-14.9-15.2
		c9.3-8,7.3-24.3,7.3-24.3c-3.3,10.4-14.2,13.9-14.2,13.9c8.1-18.4,3.6-28.8,3.6-28.8c-1.2,11.4-21.5,15.4-21.5,15.4
		c2-8.4,3.6-15.4,3.6-15.4c-3.6,5.5-17,17.9-38.9,18.9s-24.3,22.3-24.3,22.3c-15.2,11.3-11,38.6-6.5,55.5l4.4-26.1
		c0.1-1.2,0.3-2.4,0.5-3.5c0.1-0.7,0.3-1.5,0.5-2.2v-0.1l0,0c3.7-13,18.6-16.1,18.6-16.1c27.6,14.4,56.4-0.5,56.4-0.5
		C316.8,787,319.9,796.9,319.9,796.9z"/>
	<path class="st14" d="M462.4,911.5c1.7-1.4,3.2-2.6,3.2-2.6c16-16.2,15.5-16.5,15.1-17.2s-9,4.1-9.2,3.1s8.7-10.8,7.5-11
		s-10.6,7.9-11,7.3s8.4-10.1,7.1-11.2s-10.6,9.5-11.3,8.2s9.1-12,7.7-12.8c-1.1-0.7-12.4,11-16,14.7c-0.3,0.3-0.9,0.3-1.2,0
		c-0.1-0.1-0.2-0.3-0.2-0.4c-2.3-10-3.1-10.6-4.1-10.1c-0.7,0.4-2.8,13.8-4,22.5L462.4,911.5L462.4,911.5z"/>
</g>
<path id="Laptop_bottom" class="st11" d="M16.6,1363.5h1789.7c5,0,9,4,9,9l0,0v2.7c0,5-4,9-9,9l0,0H16.6c-5,0-9-4-9-9l0,0v-2.7
	C7.6,1367.5,11.7,1363.5,16.6,1363.5L16.6,1363.5z"/>
<g id="Top_Boy">
	<path class="st12" d="M466.2,528.3l7.7,17.2c0.6,1.4,0,3.1-1.4,3.7l0,0l-40.2,18c-1.6,0.7-3.5,0-4.2-1.5c-0.5-1-0.4-2.2,0.2-3.1
		l15.6-24.2C443.8,538.3,456.2,540.6,466.2,528.3z"/>
	<path class="st12" d="M517.3,528.3l7.7,17.2c0.6,1.4,0,3.1-1.4,3.7l0,0l-40.2,18c-1.6,0.7-3.5,0-4.2-1.5c-0.5-1-0.4-2.2,0.2-3.1
		l15.6-24.2C495,538.3,507.2,540.6,517.3,528.3z"/>
	<path class="st18" d="M604.1,55l4.3,26.8l9-35.7c0,0-12.7-6.2-13.2-3.9S604.1,55,604.1,55z"/>
	<polygon class="st14" points="675.9,112.7 679.8,159.1 639,157.1 643.7,116.1 	"/>
	<path class="st16" d="M641.4,135.6l2.3-19.5l32.3-3.3l1.3,16C670.9,135.1,659.3,141.8,641.4,135.6z"/>
	<path class="st16" d="M616.3,81.5c2.5,5.1,1.2,10.8-2.9,12.8s-9.4-0.6-11.8-5.6s-1.2-10.8,2.9-12.8S613.9,76.4,616.3,81.5z"/>
	<path class="st14" d="M610.4,85.2c-0.2-1.3-0.5-2.6-0.8-3.9c-5.7-23.5,8.7-47.1,32.2-52.7c23.5-5.7,47.1,8.7,52.7,32.2
		c0.6,2.5,1,5,1.1,7.5c2.5-1.7,5.6-2.2,8.5-1.2c5.3,2,7.6,9,5.2,15.6s-8.8,10.4-14.1,8.5c-0.7-0.3-1.4-0.7-2-1.1
		c-0.8,21.5-17.3,39.1-38.3,40.1c-9.9,0.4-19.7-2.9-27.2-9.4C617.5,113.3,612.4,97.6,610.4,85.2z"/>
	<path class="st16" d="M642.3,71.2c-0.1,2.5-0.1,4.9-0.2,7.3s-0.4,4.8-1.3,6.5c-1,1.3-1.7,2.2-1.7,3.8c0,1.6,0.7,3,1.9,4
		c2.1,1.7,4.9,2.2,7.5,1.5c-2.4-0.4-4.8-1.3-6.2-2.9c-0.6-0.7-1-1.6-0.9-2.5s0.4-1.1,1.5-2.6c0.7-1.2,1.1-2.6,1.2-4
		c0.1-1.3,0.1-2.6,0-3.8C643.8,76,643.2,73.5,642.3,71.2z"/>
	<path class="st17" d="M656.8,73.9c-0.2,2.1,1.3,4,3.4,4.2c2.1,0.2,4-1.3,4.2-3.4s-1.3-4-3.4-4.2c-0.4,0-0.8,0-1.2,0.1
		C658.2,70.9,657,72.2,656.8,73.9z"/>
	<path class="st17" d="M624.2,77.6c-0.2,2.1,1.3,4,3.4,4.2s4-1.3,4.2-3.4s-1.3-4-3.4-4.2c-0.4,0-0.8,0-1.2,0.1
		C625.6,74.6,624.3,75.9,624.2,77.6z"/>
	<path class="st16" d="M663.2,100.3c-1,0.9-2,1.7-3.2,2.4c-1.1,0.7-2.2,1.4-3.4,2c-2.3,1.2-4.8,1.9-7.4,2.3
		c-2.6,0.3-5.2,0.1-7.7-0.6s-4.9-1.8-7.2-3.3c2,1.8,4.4,3.1,6.9,4c2.6,0.9,5.3,1.1,8,0.8c2.7-0.4,5.3-1.2,7.6-2.6
		C659.3,104.1,661.4,102.4,663.2,100.3z"/>
	<path class="st18" d="M652,65.9c1.8-0.6,3.7-1,5.6-1.3c1.8-0.3,3.5-0.3,5.3-0.1c1.8,0.2,3.5,0.7,5.1,1.4c1.3,0.4,4.3,2.2,5.2,2.6
		c-1.9-3.8-5.7-6.4-9.9-6.9c-2.1-0.2-4.3,0-6.3,0.8C655,63,653.3,64.3,652,65.9z"/>
	<path class="st18" d="M635.2,67.8c-1.6-1.3-3.5-2.2-5.5-2.6c-2.1-0.4-4.3-0.3-6.3,0.4c-2,0.7-3.9,1.8-5.3,3.4
		c-1.4,1.5-2.5,3.3-3,5.3c0.7-0.5,3.4-2.9,4.5-3.5c1.5-1,3.1-1.8,4.7-2.3c1.7-0.5,3.4-0.9,5.2-0.9C631.4,67.5,633.3,67.6,635.2,67.8
		z"/>
	<path class="st3" d="M653.4,330.1c0,0,8.6,57.9-47.4,67.9s-125.5,7.1-125.5,7.1L470.9,538l-29.2,1.5c0,0-75.1-184.6,28.9-213.5
		l93.5,0.5l38.5-2.8c0,0,39-9.6,39.4-7.8S652.5,331,653.4,330.1z"/>
	<path class="st0" d="M704.8,330.4c0,0,8.5,57.9-47.4,67.9S532,405.4,532,405.4l-9.7,132.9l-29.2,1.5c0,0-75.1-184.7,28.9-213.5
		l93.5,0.5L654,324c0,0,39-9.6,39.4-7.8S703.9,331.3,704.8,330.4z"/>
	<path class="st2" d="M634.4,140.6c0,0-38.5,4.9-48.3,12.8S529.3,278,529.3,278l39.1,45.8l83.1,0.6c0,0,62.3,33.6,101.4,1.8
		s18.9-142.4-3.7-166.2s-62.9-23.2-62.9-23.2S649.7,162.6,634.4,140.6z"/>
	<path class="st7" d="M708.9,198.6c-1.3,6.4-2.3,12.8-2.8,19.3c-0.3,3.2-0.5,6.5-0.7,9.7s-0.2,6.5-0.1,9.8c0,6.5,0.6,13.1,1.6,19.5
		c1.1,6.4,2.7,12.9,5.7,18.7c-1.9-6.2-3.1-12.5-3.7-18.9c-0.7-6.4-1-12.8-1-19.3s0-12.9,0.2-19.4S708.6,205.1,708.9,198.6z"/>
	<path class="st7" d="M593.8,194.3c-1.8,9.5-3.6,18.9-5.5,28.3s-3.9,18.8-6.2,28.1c-2.3,9.3-4.8,18.6-7.8,27.6
		c-1.5,4.5-3.2,9-5.2,13.4c-1.9,4.4-4.4,8.5-7.4,12.3c3.5-3.3,6.1-7.5,8.5-11.7c2.3-4.3,4.2-8.7,5.9-13.2s3.2-9.1,4.6-13.7
		s2.6-9.3,3.8-14s2.2-9.4,3.1-14.1s1.8-9.5,2.6-14.2C591.7,213.5,593,203.9,593.8,194.3z"/>
	<path class="st14" d="M574.4,297.4c0.3-1.9,14.9-4.1,20.3-4.4c4.1-0.2,31.2-1.1,40.4-1.5l-0.7,2.4l0.1,10.5l1.5,6.9
		c-8.1,0.5-27.9,1.3-32,2.1c-5.5,1.1-15,5.2-15,5.2s-4-0.9,1.1-3.1c3.1-1.4,5.8-3.3,8.1-5.8c0.7-0.8-0.1-2.1-0.6-2
		c-13.7,3.6-15.1,4.2-15.1,4.2s-16.1-0.1-0.1-3.7c9.6-2.2,13.1-3.4,13.9-4.5c0.4-0.5-0.3-2-0.9-2.1c-8.3-0.5-23.3,2.4-19.2,0.5
		c3.3-1.6,13.9-3.3,18-4c0.3,0,0.7-1.6-0.5-1.7C585.9,295.9,574.2,299.2,574.4,297.4z"/>
	<path class="st7" d="M718.3,274c-3.4,0.8-6.7,1.8-10.1,2.5s-6.8,1.4-10.2,2.1c-6.8,1.3-13.6,2.3-20.5,3.3s-13.7,1.7-20.6,2.4
		s-13.8,1.3-20.6,1.6h-0.9l-0.2,0.8c-0.6,2.3-1,4.5-1.3,6.9c-0.3,2.3-0.4,4.6-0.4,6.9s0.2,4.6,0.6,6.9c0.4,2.3,1.1,4.5,2,6.7
		l0.1,0.2l0.2,0.1l7.5,5.1c2.5,1.7,5,3.4,7.6,5c-2.4-1.9-4.8-3.8-7.2-5.6l-7.2-5.5l0.2,0.3c-0.8-2.1-1.3-4.2-1.6-6.4
		c-0.3-2.2-0.4-4.4-0.3-6.6c0.1-2.2,0.3-4.4,0.6-6.6s0.8-4.4,1.3-6.5l-1.1,0.8c3.6-0.1,7-0.3,10.5-0.6s6.9-0.5,10.4-0.9
		c6.9-0.7,13.8-1.6,20.7-2.7s13.7-2.5,20.5-4c3.4-0.9,6.8-1.7,10.1-2.7S715,275.1,718.3,274z"/>
	<path class="st7" d="M400.6,219.7h150.3l42.6,104h72.4c2,0,3.7,1.6,3.7,3.7l0,0c0,2-1.6,3.7-3.7,3.6l0,0H450.5L400.6,219.7z"/>
	<path class="st10" d="M475.1,279c0.9,4.4,4.8,7.4,8.6,6.6s6.3-5,5.4-9.4s-4.8-7.4-8.6-6.6S474.2,274.6,475.1,279z"/>
	<path class="st18" d="M603.3,29.6c0,0-12.8,0.4,0.6-10.4s49.6-23.6,72.8-11.3c0,0,4.6-9.9,11.3-7.5s-4.3,9.1-4.3,9.1
		s8.5-0.3,11.2,3.9c1.9,3.1-3.3,3.2-6.2,3.1c4.9,0.8,23.5,12.6,14.2,50.3c-3.3-0.7-22.3-28.3-22.3-28.3s-43.4,24.1-39.1,4.9
		c0,0-45,28.1-38.6,4.9C602.8,48.3,585.5,49.6,603.3,29.6z"/>
	<path class="st18" d="M702.9,67c-2.6-0.7-5.4,0-7.5,1.8c-3.9,3.1-3.4,13.8-3.4,13.8s-18.5,11.9-16.5-38.5
		c2.1-53.5,15.4,4.3,15.4,4.3L702.9,67z"/>
</g>
<g id="Girl">
	<path class="st7" d="M1572.2,531.7l-7.2,16c-0.6,1.3,0,2.9,1.3,3.5l37.3,16.7c1.5,0.6,3.3-0.1,3.9-1.7c0.4-0.9,0.3-1.9-0.2-2.7
		L1593,541C1593,541,1581.6,543.1,1572.2,531.7z"/>
	<path class="st7" d="M1523.8,529.8l-7.2,15.9c-0.6,1.3,0,2.9,1.3,3.5l37.3,16.8c1.5,0.6,3.3-0.1,3.9-1.7c0.3-0.9,0.3-1.8-0.2-2.6
		l-14.4-22.5C1544.6,539.1,1533.2,541.2,1523.8,529.8z"/>
	<path class="st20" d="M1480.2,13.4c0,0,40.7-6.9,54.3,38.6l-16.8,25.2c0,0-35.3-13.6-35.5-14.9S1480.2,13.4,1480.2,13.4z"/>
	<path class="st20" d="M1414.7,33.9c0,0-11.9,17.8-17.9,24.9c-15.2,17.8-17.2,12.2-26.7,27.5c-10.2,16.5,0.1,26.9,6,31.7
		s-4,22.4,7,32.3c14.3,12.9,27.6,0.7,37.4,8s12,18,35.4,15.9s23.2-78.4,23.2-78.4s-19.1-40.5-19.9-40.9S1414.7,33.9,1414.7,33.9z"/>
	<path class="st20" d="M1534.6,52c0,0,1.4,14,6,22.1c11.7,20.3,18,13.7,24.4,30.5c7,18.1-5.1,26.4-11.8,30s-0.2,22.7-12.8,30.4
		c-16.5,10.1-27.3-4.4-38.3,0.9s-15.1,15.4-37.7,9.1s-8.2-81.4-8.2-81.4s26.3-36.3,27.1-36.5S1534.6,52,1534.6,52z"/>
	<path class="st14" d="M1475.5,142.5c0,0-39-7.2-56.9-6.6s10.9,47.2,10.9,47.2l29.3,0.6c0,0,18-20.1,16.8-22.4s0.1-17.6,0.1-17.6
		L1475.5,142.5z"/>
	<path class="st14" d="M1440.7,105.3l-10.3,31.2c0,0,9,18.5,36.4,10.5c0,0-3.1-6.5,1.1-19.8C1472.2,113.7,1440.7,105.3,1440.7,105.3
		z"/>
	<path class="st21" d="M1440.7,105.3l-4.8,14.6c2.9,10.7,12.2,17.9,29.8,20.2c0.1-4.3,0.8-8.7,2.2-12.8
		C1472.2,113.7,1440.7,105.3,1440.7,105.3z"/>
	<path class="st16" d="M1503.5,82.4c-2.2,5.1-0.7,10.6,3.3,12.4s9.2-0.9,11.4-6s0.7-10.6-3.3-12.4S1505.7,77.3,1503.5,82.4z"/>
	<path class="st14" d="M1504.6,105.4c2.4-6.3,4-12.9,4.8-19.6c0.2-1.3,0.4-2.6,0.7-3.9c4.7-23.2-10.3-45.8-33.5-50.5
		s-45.8,10.3-50.5,33.5c-0.5,2.4-0.8,4.9-0.8,7.4c-2.5-1.6-5.6-1.9-8.3-0.9c-5.1,2.1-7.2,9.1-4.5,15.5s9,9.9,14.1,7.8
		c0.7-0.3,1.4-0.7,2-1.2c1.6,21,18.3,37.7,39,37.9C1483,131.6,1498.2,122.2,1504.6,105.4z"/>
	<path class="st16" d="M1477.7,73.3c-0.8,2.3-1.3,4.8-1.4,7.2c-0.1,1.3,0,2.5,0.1,3.8c0.2,1.4,0.6,2.7,1.3,3.8
		c0.9,1.2,1.4,1.6,1.6,2.6c0.1,0.9-0.2,1.8-0.8,2.5c-1.3,1.6-3.6,2.5-6,3c2.6,0.6,5.3,0,7.3-1.7c1.1-1,1.8-2.5,1.7-4
		c-0.1-1.7-0.9-2.4-1.8-3.7c-0.5-0.9-0.9-1.9-1.1-2.9c-0.2-1.1-0.4-2.3-0.5-3.4C1478,78.1,1477.9,75.7,1477.7,73.3z"/>
	<path class="st17" d="M1463.6,76.4c0.3,2-1.1,4-3.2,4.3c-2,0.3-4-1.1-4.3-3.2c-0.3-2,1.1-4,3.2-4.3c0.4-0.1,0.8-0.1,1.2,0
		C1462.1,73.6,1463.4,74.9,1463.6,76.4z"/>
	<path class="st17" d="M1495.7,78.9c0.3,2-1.1,3.9-3.2,4.2c-2,0.3-3.9-1.1-4.2-3.2c-0.3-2,1.1-3.9,3.2-4.2c0.4-0.1,0.8-0.1,1.2,0
		C1494.2,76,1495.5,77.3,1495.7,78.9z"/>
	<path class="st22" d="M1463,105.5c3.5-1.1,7.3-0.6,10.4,1.4c0,0,5.4-3.4,9.7-0.2c-1.3,4.8-5.9,8-10.9,7.6
		C1467.3,114.2,1463.2,110.4,1463,105.5z"/>
	<path class="st16" d="M1458.3,102.6c1,0.8,2.1,1.6,3.2,2.2c1.1,0.7,2.2,1.3,3.4,1.8c2.3,1.1,4.8,1.7,7.3,2c2.5,0.2,5.1-0.1,7.5-0.8
		c2.4-0.8,4.8-2,6.9-3.4c-1,0.9-2,1.7-3.1,2.4c-1.1,0.7-2.3,1.3-3.5,1.8s-2.5,0.8-3.8,1s-2.7,0.2-4,0.1c-2.6-0.3-5.2-1-7.6-2.3
		C1462.2,106.1,1460.1,104.5,1458.3,102.6z"/>
	<path class="st20" d="M1468,68.4c-1.8-0.5-3.7-0.9-5.5-1.1c-1.7-0.2-3.5-0.2-5.2,0.1c-1.7,0.3-3.4,0.8-5,1.5
		c-1.2,0.4-4.2,2.3-4.9,2.7c0.8-1.8,2.1-3.5,3.8-4.7c1.7-1.3,3.6-2.1,5.7-2.4s4.2-0.1,6.2,0.6C1464.9,65.7,1466.7,66.9,1468,68.4z"
		/>
	<path class="st20" d="M1484.6,69.7c1.5-1.4,3.3-2.3,5.3-2.7c2-0.5,4.2-0.4,6.2,0.2c4,1.1,7.2,4.2,8.5,8.2c-0.7-0.5-3.4-2.7-4.6-3.3
		c-1.5-0.9-3.1-1.6-4.7-2.1c-1.7-0.5-3.4-0.7-5.2-0.7C1488.3,69.2,1486.4,69.4,1484.6,69.7z"/>
	<path class="st12" d="M1407.7,333.3c0,0-11.5,54.1,40.7,67s118.1,14.2,118.1,14.2l1.2,126.1l27.5,3.2c0,0,82-169.9-14.5-203.4
		l-88.3-5.1l-36.2-4.9c0,0-36.2-11.4-36.8-9.7S1408.5,334.2,1407.7,333.3z"/>
	<path class="st1" d="M1359.1,330.5c0,0-11.5,54.1,40.7,67s118.1,14.2,118.1,14.2l1.2,126.1l27.5,3.2c0,0,82-169.9-14.5-203.4
		l-88.3-5.1l-36.2-4.9c0,0-36.2-11.4-36.8-9.7S1359.9,331.5,1359.1,330.5z"/>
	<path class="st6" d="M1533.7,415.3c-1.5-0.3-3-0.5-4.5-0.9s-3-0.8-4.4-1.2c-0.7-0.2-1.5-0.5-2.2-0.7c0.8-0.2,1.5-0.4,2.2-0.6
		c1.4-0.5,2.8-1.2,4-2.1c2.4-1.7,4.5-4,6-6.5l-1.5,1.6c-0.5,0.5-1,1-1.6,1.5c-1.1,1-2.2,1.8-3.5,2.6c-1.2,0.7-2.5,1.4-3.9,1.8
		c-1.3,0.5-2.7,0.7-4.1,0.8l-2.4,0.1l2.2,1c1.4,0.6,2.9,1.2,4.4,1.6s3,0.7,4.5,1s3,0.5,4.6,0.6s3.1,0.2,4.6,0.2
		C1536.7,415.8,1535.2,415.6,1533.7,415.3z"/>
	<path class="st14" d="M1519.8,218.5c0,0,3.6,88.5,13.5,102.3l-54.7-12.4v-96.3L1519.8,218.5z"/>
	<path class="st0" d="M1496.5,230.6c0,0-7.6,22.3-9,34.1c-3.4,29.4,0.3,50.1,6.4,66.8c8.5,23.4-61.1,14.9-62.5,14.2
		s-61.1-23.8-61.1-23.8l-11.4-33v-58.3l3.2-26.6L1496.5,230.6z"/>
	<path class="st14" d="M1329.8,203.9l43.8,14.9c0,0-7.6,70.1-5.2,80c2,8.5,33.8,25.4,53.9,34.9c3.2,1.5,6.8,2.2,10.4,1.9
		c11.5-0.9,31.8-2.7,35-2.9c5-0.4,18.8,0,19.2,1.8s-10.8-0.2-18,1.3c-1,0.2-0.5,1.6-0.2,1.6c3.8,0.1,13.7,0.6,17,1.6
		c4,1.3-10.1,0.3-17.8,1.7c-0.5,0.1-1,1.6-0.6,2c0.9,0.9,4.2,1.7,13.3,2.6c15.2,1.6,0.3,3.4,0.3,3.4s-1.4-0.4-14.4-2.2
		c-0.5-0.1-1,1.3-0.3,1.9c2.4,2,5.1,3.5,8.1,4.4c4.9,1.5,1.3,2.7,1.3,2.7s-9.3-2.8-14.5-3.1c-3.9-0.3-22.2,1.2-29.7,1.6l-0.6-1.3
		c-10.2-0.3-91.5-2.4-99.3-52.8C1323.6,248.2,1329.8,203.9,1329.8,203.9z"/>
	<path class="st7" d="M1648.2,254.1h-139.6l-39.6,96.6h-67.3c-1.9,0-3.4,1.5-3.4,3.4l0,0l0,0c0,1.9,1.5,3.4,3.4,3.4l0,0h200.1
		L1648.2,254.1z"/>
	<path class="st10" d="M1567.3,309.3c-0.8,4.1-4.4,6.9-8,6.1s-5.9-4.6-5-8.8s4.4-6.9,8-6.1S1568.2,305.2,1567.3,309.3z"/>
	<path class="st0" d="M1475.5,142.5c0,0-26.5,31-56.9-6.6c0,0-33.2-2.7-57.8,14.7s-39.2,56.5-39.2,56.5s44.4,22.4,55.4,23.4h123.3
		c12.8-1.3,25.4-5,36.9-10.7C1537.2,219.9,1534.1,157.8,1475.5,142.5z"/>
	<path class="st3" d="M1393.2,195.3c-1.1,3.8-2.2,7.7-3.2,11.6c-1.9,7.6-3.7,14.9-5,22.6c-2.5,0-5-0.2-7.5-0.6
		c-12.8-2.3-21.2-5.9-32.6-10.5c-17.1-7.8-14.8-7-23.4-11.3c7.3,4.7,14.9,9,22.7,12.9c10,4.6,19.5,8.9,33,11.3
		c5.9,0.8,7.6,0.6,9.8,0.4c0.9-5.7,1.9-11.5,4.6-24.3l2.5-11.7l2.6-11.7C1395.5,187.6,1394.4,191.5,1393.2,195.3z"/>
	<path class="st3" d="M1490.5,174.8c1.7,4.5,3.3,9.1,4.7,13.7c1.4,4.6,2.6,9.3,3.4,14c0.9,4.7,1.3,9.4,1.1,14.2
		c-0.2,4.7-7.2,27.1-9.3,31.5c2.9-3.9,10.6-26.4,11.1-31.4c0.5-4.9,0.3-9.9-0.6-14.8c-0.9-4.8-2.2-9.6-4-14.1
		C1495.2,183.4,1493.1,179,1490.5,174.8z"/>
	<path class="st20" d="M1425.3,72.3c0,0,45.5-11,67.3-41.9c0,0,0.4-28.2-41.4-21.8C1410.5,14.8,1401,54.3,1425.3,72.3z"/>
</g>
</svg>
